<?xml version="1.0" standalone="no"?>
<!DOCTYPE svg PUBLIC "-//W3C//DTD SVG 1.1//EN" "http://www.w3.org/Graphics/SVG/1.1/DTD/svg11.dtd">
<svg xmlns="http://www.w3.org/2000/svg">
<metadata>Generated by Fontastic.me</metadata>
<defs>
<font id="cosential-nav-icons" horiz-adv-x="512">
<font-face font-family="cosential-nav-icons" units-per-em="512" ascent="480" descent="-32"/>
<missing-glyph horiz-adv-x="512" />

<glyph glyph-name="activities" unicode="&#97;" d="M208 361c-5 0-9 1-12 4-3 3-4 7-4 12l0 40c0 4 1 8 4 11 3 3 7 5 12 5l288 0c4 0 8-2 11-5 3-3 5-7 5-11l0-40c0-5-2-9-5-12-3-3-7-4-11-4z m0-160c-5 0-9 1-12 4-3 3-4 7-4 12l0 40c0 4 1 8 4 11 3 3 7 5 12 5l288 0c4 0 8-2 11-5 3-3 5-7 5-11l0-40c0-5-2-9-5-12-3-3-7-4-11-4z m0-160c-5 0-9 1-12 4-3 3-4 7-4 12l0 40c0 4 1 8 4 11 3 3 7 5 12 5l288 0c4 0 8-2 11-5 3-3 5-7 5-11l0-40c0-5-2-9-5-12-3-3-7-4-11-4z m-144 84c13 0 24-5 34-14 9-10 14-21 14-34 0-14-5-25-14-34-10-10-21-14-34-14-14 0-25 4-35 14-10 9-14 20-14 34 0 13 4 24 14 34 10 9 21 14 35 14z m93 299l-1 0c2 2 4 5 4 8 0 3-1 6-3 9l-17 17c-3 2-6 3-9 3-4 0-6-1-8-3l-64-64-23 22c-2 2-5 4-8 4-4 0-7-2-9-4l-16-15c-2-3-3-6-3-9 0-4 1-6 4-8l47-48c2-2 5-3 9-3 3 0 6 1 9 3l15 16z m0-160l-1 0c2 2 4 5 4 9 0 3-1 6-3 8l-17 17c-3 2-6 4-9 4-4 0-6-2-8-4l-64-63-23 22c-2 2-5 3-8 3-4 0-7-1-9-3l-16-16c-2-3-3-6-3-9 0-3 1-6 4-8l47-47c2-3 5-4 9-4 3 0 6 1 9 4l15 15z"/>
<glyph glyph-name="administration" unicode="&#98;" d="M498 95l-128 127-54-55 127-127c15-15 40-15 55 0 15 15 15 40 0 55z m-86 206c49 0 90 40 90 90 0 15-4 29-11 42l-69-70-39 38 70 70c-12 7-26 11-41 11-50 0-91-41-91-91 0-10 2-20 6-30l-48-47-46 46c10 10 10 26 0 36l-18 18 54 55c-30 30-79 30-109 0l-73-73c-10-10-10-26 0-36l18-19-65 0c-5 0-10-2-13-5-7-7-7-19 0-26l65-66c8-7 19-7 26 0 4 4 6 8 6 13l0 66 18-18c10-10 26-10 36 0l46-46-164-164c-15-15-15-40 0-55 15-15 40-15 55 0l266 266c10-3 20-5 31-5z"/>
<glyph glyph-name="contact-manager" unicode="&#99;" d="M30 435l452 0c16 0 30-13 30-30l0-285c0-17-14-30-30-30l-452 0c-16 0-30 13-30 30l0 285c0 17 14 30 30 30z m175-127c0 25-20 45-45 45-25 0-45-20-45-45 0-25 20-46 45-46 25 0 45 21 45 46z m-135-121l0-15 181 0 0 15c0 30-61 47-91 47-30 0-90-17-90-47z m240 20l111 0c10 0 18 9 18 20 0 11-8 20-18 20l-111 0c-10 0-17-9-17-20 0-11 7-20 17-20z m0 86l111 0c10 0 18 9 18 20 0 11-8 20-18 20l-111 0c-10 0-17-9-17-20 0-11 7-20 17-20z"/>
<glyph glyph-name="contracts" unicode="&#100;" d="M308 473c-9 10-22 15-35 15l-174 0c-27 0-49-22-49-49l0-390c0-27 22-49 48-49l293 0c27 0 49 22 49 49l0 272c0 13-5 26-14 35z m10-375l-146 0c-14 0-25 11-25 24 0 13 11 24 25 24l146 0c13 0 24-11 24-24 0-13-11-24-24-24z m0 97l-146 0c-14 0-25 11-25 24 0 14 11 25 25 25l146 0c13 0 24-11 24-25 0-13-11-24-24-24z m-49 146l0 110 134-134-109 0c-14 0-25 11-25 24z"/>
<glyph glyph-name="marketing" unicode="&#101;" d="M253 504c-137 0-248-111-248-248 0-137 111-248 248-248 137 0 248 111 248 248 0 137-111 248-248 248z m0-432c-102 0-184 82-184 184 0 102 82 184 184 184 102 0 184-82 184-184 0-102-82-184-184-184z m0 312c-71 0-128-57-128-128 0-71 57-128 128-128 71 0 128 57 128 128 0 71-57 128-128 128z m0-192c-35 0-64 29-64 64 0 35 29 64 64 64 35 0 64-29 64-64 0-35-29-64-64-64z"/>
<glyph glyph-name="email" unicode="&#102;" d="M461 461l-410 0c-28 0-51-23-51-51l0-308c0-28 23-51 51-51l410 0c28 0 51 23 51 51l0 308c0 28-23 51-51 51z m-10-109l-181-113c-9-5-19-5-28 0l-181 113c-6 4-10 11-10 18 0 18 19 28 33 19l172-107 172 107c14 9 33-1 33-19 0-7-4-14-10-18z"/>
<glyph glyph-name="personnel" unicode="&#103;" d="M256 256c71 0 128 57 128 128 0 71-57 128-128 128-71 0-128-57-128-128 0-71 57-128 128-128z m0-64c-85 0-256-43-256-128l0-32c0-18 14-32 32-32l448 0c18 0 32 14 32 32l0 32c0 85-171 128-256 128z"/>
<glyph glyph-name="projects" unicode="&#104;" d="M63 205c1-6 6-12 15-20 8-8 19-14 33-18 22-7 41-11 57-13 5 0 9 4 10 9l0 6c0 2-2 4-4 4-5 1-10 1-15 3-8 1-17 4-29 7-26 9-41 19-45 28l-3 34c-2 23 4 50 18 82 13 32 36 60 66 78 22 14 46 24 71 29 26 6 44 8 53 7 10 0 18-1 23-2l-20-3c-13-2-30-7-50-16-20-8-37-19-52-33-32-30-50-61-54-93l13 24c9 15 25 32 48 50 22 18 48 31 76 37 23 7 45 9 64 5 16-3 32-7 47-12 12-4 23-11 32-19 9-9 14-15 17-18 2-3 4-6 5-8l-10 9c-7 6-22 12-43 17-21 5-46 7-73 4-33-5-64-19-89-42-10-9-18-20-25-31-6-8-10-16-15-24-1-4-3-7-4-11l6 10c6 9 14 17 22 25 11 10 22 19 35 28 14 8 32 15 55 20 24 5 48 6 73 3 25-2 46-9 62-19 17-11 28-22 33-35 6-14 10-28 12-42 3-13 3-27 0-40-2-10-3-20-3-30 0-8 1-12 3-12 2 0 4 1 6 2 2 1 4 3 4 5 2 4 2 8 2 12-1 3-2 5-2 7l7-1c5-1 9-4 13-10 4-6 5-15 3-27-2-13-15-23-40-29-25-6-59-12-101-18-42-6-75-13-100-22-10-3-19-7-28-12-12-6-25-10-39-13-20-3-40-5-61-6-22-1-48 2-77 11-30 9-50 24-59 45-7 10-8 20-4 30 4 8 8 17 13 24 5 7 12 14 19 18 9 6 15 10 19 11 2 2 5 3 8 4z"/>
<glyph glyph-name="publisher" unicode="&#105;" d="M461 486c13 0 26-6 36-15 9-10 15-23 15-36l0-307c0-13-6-26-15-36-10-9-23-15-36-15l-102 0 0 50 90 0c7 0 13 6 13 13l0 211c0 7-6 13-13 13l-385 0c-7 0-13-6-13-13l0-211c0-7 6-13 13-13l90 0 0-50-103 0c-13 0-25 5-36 15-5 5-9 10-11 17-3 6-4 12-4 19l0 307c0 7 1 13 4 19 2 7 6 12 11 17 11 10 23 15 36 15z m-104-285c8-8 2-22-9-22l-46 0 0-140c0-7-6-13-13-13l-68 0c-7 0-13 6-13 13l0 140-46 0c-11 0-17 14-9 22l102 101z"/>
<glyph glyph-name="resources" unicode="&#106;" d="M512 154l0 307c0 28-23 51-51 51l-307 0c-29 0-52-23-52-51l0-307c0-29 23-52 52-52l307 0c28 0 51 23 51 52z m-271 88l41-55 66 82c6 6 15 6 20 0l76-95c7-8 1-20-10-20l-255 0c-10 0-16 12-10 20l51 68c5 7 16 7 21 0z m-241 142l0-333c0-28 23-51 51-51l333 0c14 0 26 12 26 26 0 14-12 25-26 25l-307 0c-14 0-26 12-26 26l0 307c0 14-11 26-25 26-14 0-26-12-26-26z"/>
<glyph glyph-name="goals" unicode="&#107;" d="M455 455l-57 0 0 29c0 15-13 28-28 28l-228 0c-15 0-28-13-28-28l0-29-57 0c-31 0-57-25-57-57l0-28c0-73 55-132 125-141 18-42 56-75 103-84l0-88-86 0c-15 0-28-13-28-29 0-15 13-28 28-28l228 0c15 0 28 13 28 28 0 16-13 29-28 29l-86 0 0 88c47 9 85 42 103 84 70 9 125 68 125 141l0 28c0 32-26 57-57 57z m-398-85l0 28 57 0 0-108c-33 12-57 43-57 80z m398 0c0-37-24-68-57-80l0 108 57 0z"/>
<glyph glyph-name="opportunties" unicode="&#108;" d="M265 287c-65 17-86 34-86 61 0 31 29 53 77 53 40 0 61-15 68-40 3-11 13-20 25-20l8 0c19 0 32 19 26 36-12 34-40 62-84 73l0 19c0 24-19 43-43 43-24 0-43-19-43-43l0-19c-55-11-99-47-99-102 0-66 54-99 133-118 72-17 86-42 86-68 0-20-14-51-77-51-47 0-71 17-80 41-5 11-14 19-26 19l-8 0c-19 0-32-20-25-37 16-40 54-63 96-72l0-19c0-24 19-43 43-43 24 0 43 19 43 43l0 18c55 11 99 43 99 101 0 81-69 108-133 125z"/>
<glyph glyph-name="website" unicode="&#109;" d="M256 512c-141 0-256-115-256-256 0-141 115-256 256-256 141 0 256 115 256 256 0 141-115 256-256 256z m-26-459c-101 13-179 99-179 203 0 16 2 31 6 46l122-123 0-25c0-29 23-52 51-52z m177 65c-7 21-26 36-49 36l-25 0 0 76c0 14-12 26-26 26l-153 0 0 51 51 0c14 0 25 12 25 26l0 51 52 0c28 0 51 23 51 51l0 11c75-31 128-104 128-190 0-53-21-102-54-138z"/>
<glyph glyph-name="dashboard" unicode="&#110;" d="M28 228l171 0c16 0 29 12 29 28l0 228c0 15-13 28-29 28l-171 0c-15 0-28-13-28-28l0-228c0-16 13-28 28-28z m0-228l171 0c16 0 29 13 29 28l0 114c0 16-13 29-29 29l-171 0c-15 0-28-13-28-29l0-114c0-15 13-28 28-28z m285 0l171 0c15 0 28 13 28 28l0 228c0 16-13 28-28 28l-171 0c-16 0-29-12-29-28l0-228c0-15 13-28 29-28z m-29 484l0-114c0-16 13-29 29-29l171 0c15 0 28 13 28 29l0 114c0 15-13 28-28 28l-171 0c-16 0-29-13-29-28z"/>
<glyph glyph-name="accounting" unicode="&#111;" d="M455 398l-284 0c-32 0-57-25-57-57l0-284c0-31 25-57 57-57l284 0c31 0 57 26 57 57l0 284c0 32-26 57-57 57z m0-85c0-16-13-29-28-29l-228 0c-16 0-28 13-28 29 0 16 12 28 28 28l228 0c15 0 28-12 28-28z m-171-142l0 57 57 0 0-57z m57-57l0-57-57 0 0 57z m-113 57l-57 0 0 57 57 0z m170 57l57 0 0-57-57 0z m-227-114l57 0 0-57-57 0z m227-57l0 57 57 0 0-57z m-313 57l-28 0c-31 0-57 25-57 57l0 284c0 31 26 57 57 57l284 0c32 0 57-26 57-57l0-28-57 0 0 28-284 0 0-284 28 0z"/>
<glyph glyph-name="knowledge" unicode="&#112;" d="M425 442c-9 9-23 9-31 0l-9-8c-8-9-8-23 0-31l1 0c8-9 22-9 30 0l9 8c8 9 8 23 0 31z m-169 70l0 0c-12 0-22-10-22-22l0-20c0-12 10-22 22-22l0 0c12 0 22 10 22 22l0 20c0 12-10 22-22 22z m196-260l22 0c12 0 21 9 21 21l0 1c0 12-9 21-21 21l-22 0c-12 0-22-9-22-21l0-1c0-12 10-21 22-21z m-370 21l0 1c0 12-10 21-22 21l-22 0c-12 0-21-9-21-21l0-1c0-12 9-21 21-21l22 0c12 0 22 9 22 21z m45 161l-9 8c-8 9-22 9-31 0-8-8-8-22 0-30l9-9c8-8 22-8 30 0 9 9 9 22 1 31z m66-413c0-11 9-21 21-21l84 0c12 0 21 10 21 21l0 21-126 0z m63 397c-82 0-146-64-146-146 0-50 25-94 62-119l0-48c0-11 9-21 21-21l126 0c12 0 21 10 21 21l0 48c37 27 62 71 62 119 0 82-64 146-146 146z"/>
<glyph glyph-name="firm-org" unicode="&#113;" d="M102 179l-76 0c-15 0-26-11-26-25l0-77c0-14 11-26 26-26l76 0c15 0 26 12 26 26l0 77c0 14-11 25-26 25z m-19 64l154 0 0-38 38 0 0 38 154 0 0-38 38 0 0 46c0 17-14 31-31 31l-161 0 0 51 32 0c14 0 26 11 26 25l0 77c0 14-12 26-26 26l-102 0c-14 0-26-12-26-26l0-77c0-14 12-25 26-25l32 0 0-51-161 0c-17 0-31-14-31-31l0-46 38 0z m211-64l-76 0c-15 0-26-11-26-25l0-77c0-14 11-26 26-26l76 0c15 0 26 12 26 26l0 77c0 14-11 25-26 25z m192 0l-76 0c-15 0-26-11-26-25l0-77c0-14 11-26 26-26l76 0c15 0 26 12 26 26l0 77c0 14-11 25-26 25z"/>
<glyph glyph-name="social" unicode="&#114;" d="M461 410l-26 0 0-205c0-14-11-26-25-26l-308 0 0-25c0-29 23-52 52-52l256 0 102-102 0 358c0 29-23 52-51 52z m-77-128l0 179c0 28-23 51-51 51l-282 0c-28 0-51-23-51-51l0-333 102 102 231 0c28 0 51 23 51 52z"/>
<glyph glyph-name="archives" unicode="&#115;" d="M461 512l-410 0c-25 0-51-23-51-51l0-77c0-19 11-35 26-44l0-289c0-28 28-51 51-51l358 0c23 0 51 23 51 51l0 289c15 9 26 25 26 44l0 77c0 28-26 51-51 51z m-128-307l-154 0 0 51 154 0z m128 179l-410 0 0 77 410 0z"/>
<glyph glyph-name="timesheets" unicode="&#116;" d="M256 512c-142 0-256-115-256-256 0-141 114-256 256-256 141 0 256 115 256 256 0 141-115 256-256 256z m0-461c-113 0-205 92-205 205 0 113 92 205 205 205 113 0 205-92 205-205 0-113-92-205-205-205z m-6 333l-1 0c-10 0-19-8-19-18l0-121c0-9 5-18 13-22l106-64c9-5 20-3 25 6 6 9 3 20-6 25l-99 59 0 117c0 10-8 18-19 18z"/>
<glyph glyph-name="reports" unicode="&#117;" d="M256 341l114 0c15 0 28 13 28 29 0 15-13 28-28 28l-114 0c-16 0-28-13-28-28 0-16 12-29 28-29z m0-113l114 0c15 0 28 12 28 28 0 16-13 28-28 28l-114 0c-16 0-28-12-28-28 0-16 12-28 28-28z m0-114l114 0c15 0 28 13 28 28 0 16-13 29-28 29l-114 0c-16 0-28-13-28-29 0-15 12-28 28-28z m-142 256c0 15 13 28 28 28 16 0 29-13 29-28 0-16-13-29-29-29-15 0-28 13-28 29z m0-114c0 16 13 28 28 28 16 0 29-12 29-28 0-16-13-28-29-28-15 0-28 12-28 28z m0-114c0 16 13 29 28 29 16 0 29-13 29-29 0-15-13-28-29-28-15 0-28 13-28 28z m370 370l-456 0c-15 0-28-13-28-28l0-456c0-15 13-28 28-28l456 0c15 0 28 13 28 28l0 456c0 15-13 28-28 28z m-29-455l-398 0 0 398 398 0z"/>
<glyph glyph-name="surveys" unicode="&#118;" d="M455 512l-398 0c-31 0-57-26-57-57l0-398c0-31 26-57 57-57l398 0c31 0 57 26 57 57l0 398c0 31-26 57-57 57z m-313-398c-15 0-28 13-28 28l0 142c0 16 13 29 28 29 16 0 29-13 29-29l0-142c0-15-13-28-29-28z m114 0c-16 0-28 13-28 28l0 228c0 15 12 28 28 28 16 0 28-13 28-28l0-228c0-15-12-28-28-28z m114 0c-16 0-29 13-29 28l0 57c0 16 13 29 29 29 15 0 28-13 28-29l0-57c0-15-13-28-28-28z"/>
<glyph glyph-name="preferences" unicode="&#119;" d="M446 231l0-1c1 9 2 17 2 26 0 9-1 17-2 25l1 0 62 49-62 108-74-30 1 0c-14 10-28 19-44 26l0 0-12 78-124 0-12-79 1 0c-16-6-31-15-44-25l0 0-74 30-62-108 62-49 1 0c-1-8-2-16-2-25 0-9 1-17 2-26l0 1-54-43-9-6 63-108 73 30 0 1c13-11 28-19 44-26l-1 0 12-79 124 0c0 0 1 5 2 11l9 68 0 0c16 6 31 15 44 25l0-1 74-29 62 108c0 0-4 3-9 6z m-190-65c-50 0-90 41-90 90 0 49 40 90 90 90 49 0 89-41 89-90 0-49-40-90-89-90z"/>
<glyph glyph-name="logout" unicode="&#120;" d="M475 256c0-30-5-58-17-85-12-27-27-51-47-70-19-20-43-35-70-47-27-12-55-17-85-17-30 0-58 5-85 17-27 12-51 27-70 47-20 19-35 43-47 70-12 27-17 55-17 85 0 35 7 67 23 98 15 31 36 56 64 77 8 6 18 9 28 7 10-1 18-6 23-14 7-8 9-17 7-27-1-10-6-18-14-24-18-14-33-31-43-52-10-20-15-42-15-65 0-20 4-39 11-57 8-18 18-33 32-46 13-14 28-24 46-32 18-7 37-11 57-11 20 0 39 4 57 11 18 8 33 18 46 32 14 13 24 28 32 46 7 18 11 37 11 57 0 23-5 45-15 65-10 21-25 38-43 52-8 6-13 14-14 24-2 10 0 19 7 27 5 8 13 13 24 14 10 2 19-1 27-7 28-21 49-46 64-77 16-31 23-63 23-98z m-182 219l0-182c0-10-4-19-11-26-8-7-16-11-26-11-10 0-18 4-26 11-7 7-11 16-11 26l0 182c0 10 4 19 11 26 8 7 16 11 26 11 10 0 18-4 26-11 7-7 11-16 11-26z"/>
<glyph glyph-name="human-resources" unicode="&#121;" d="M461 397l-103 0 0 51c0 28-22 51-51 51l-102 0c-29 0-51-23-51-51l0-51-103 0c-28 0-51-23-51-51l0-282c0-28 23-51 51-51l410 0c28 0 51 23 51 51l0 282c0 28-23 51-51 51z m-154 0l-102 0 0 51 102 0z"/>
<glyph glyph-name="products" unicode="&#122;" d="M110 384c0 10-4 19-11 26-7 7-16 11-26 11-10 0-19-4-26-11-7-7-10-16-10-26 0-10 3-19 10-26 7-7 16-11 26-11 10 0 19 4 26 11 7 7 11 16 11 26z m305-165c0-10-4-18-11-25l-140-141c-8-7-16-10-26-10-10 0-19 3-26 10l-204 205c-8 7-14 16-19 29-5 12-7 23-7 33l0 119c0 10 3 18 11 26 7 7 15 10 25 10l119 0c10 0 21-2 34-7 12-5 21-11 29-19l204-204c7-7 11-16 11-26z m109 0c0-10-3-18-10-25l-141-141c-7-7-16-10-26-10-6 0-12 1-16 4-5 2-10 7-16 12l135 135c7 7 10 15 10 25 0 10-3 19-10 26l-205 204c-7 8-17 14-29 19-12 5-23 7-33 7l64 0c10 0 21-2 33-7 12-5 22-11 29-19l205-204c7-7 10-16 10-26z"/>
<glyph glyph-name="support" unicode="&#65;" d="M256 512c35 0 68-7 99-20 32-14 59-32 82-55 23-23 41-50 55-82 13-31 20-64 20-99 0-35-7-68-20-99-14-32-32-59-55-82-23-23-50-41-82-55-31-13-64-20-99-20-35 0-68 7-99 20-32 14-59 32-82 55-23 23-41 50-55 82-13 31-20 64-20 99 0 35 7 68 20 99 14 32 32 59 55 82 23 23 50 41 82 55 31 13 64 20 99 20z m0-37c-36 0-71-8-103-25l55-56c16 6 32 8 48 8 16 0 32-2 48-8l55 56c-32 17-67 25-103 25z m-194-322l56 55c-6 16-8 32-8 48 0 16 2 32 8 48l-56 55c-17-32-25-67-25-103 0-36 8-71 25-103z m194-116c36 0 71 8 103 25l-55 56c-16-6-32-8-48-8-16 0-32 2-48 8l-55-56c32-17 67-25 103-25z m0 109c30 0 56 11 78 32 21 22 32 48 32 78 0 30-11 56-32 78-22 21-48 32-78 32-30 0-56-11-78-32-21-22-32-48-32-78 0-30 11-56 32-78 22-21 48-32 78-32z m138 62l56-55c17 32 25 67 25 103 0 36-8 71-25 103l-56-55c6-16 8-32 8-48 0-16-2-32-8-48z"/>
<glyph glyph-name="project-manager" unicode="&#66;" d="M452 412l-61 60c-41 41-109 41-151 0l-211-211 30-30 212 211c25 25 65 25 90 0l60-61c25-25 25-65 0-90l-211-211c-27-27-57-33-65-25l-10 10-15 15-33 33c-4 3-1 24 10 35l211 211c3 2 23-8 38-23-7-6-5-5-8-7l-153-154 30-30 154 153c18 19 41 35 7 68-33 34-67 54-98 23l-211-211c-25-25-35-71-10-95l33-33 25-25c28-29 83-18 125 25l212 211c41 41 41 109 0 151z"/>
<glyph glyph-name="it" unicode="&#67;" d="M0 149c2 0 4 0 6 0l502 0c0-1 0-3 0-4 0-7 0-14 0-21 0-3 0-5-2-8-1-3-3-5-5-7-8-5-16-9-26-10-3-1-7-1-11-1l-420 0c-11 0-22 3-32 9-2 1-5 3-7 5-2 3-3 6-4 9 0 0-1 1-1 2z m274-25c1 0 2 0 3 0 1 0 2 0 2 1 1 1 1 1 1 2 0 1 0 2-1 3 0 0-1 1-2 1-1 0-2 0-3 0-13 0-26 0-39 0-1 0-2 0-3 0-1 0-2-1-2-1-1-1-1-2-1-3 0-1 0-1 1-2 0-1 1-1 2-1 1 0 2 0 3 0z m-160 42c-7-1-15 1-22 4-15 8-23 20-24 36 0 2 0 3 0 4 0 61 0 121 0 181 0 5 1 10 2 15 3 14 20 30 38 31 2 0 4 0 6 0 94 0 188 0 281 0 18 0 31-8 40-23 4-5 6-12 6-18l0-35c0-51-1-102 0-153 0-22-18-41-40-42-3 0-6 0-9 0z m141 237l-140 0c-1 0-2 0-3 0-3 0-5-1-6-2-2-2-3-3-3-5-1-2-1-3-1-5 0-60 0-120 0-180 0-1 0-1 0-2 0-1 0-2 0-3 1-1 1-2 2-3 1-1 2-2 3-2 1-1 2-1 3-1 1 0 2 0 4 0 94 0 188 0 281 0 8 0 12 3 12 11 0 60 0 120 0 180 0 0 0 1 0 2 0 2-1 4-2 6-1 1-2 2-4 3-1 1-3 1-5 1-47 0-94 0-141 0z"/>
<glyph glyph-name="private-contact" unicode="&#68;" d="M294 217c-1 0-2-1-3-2-50-51-101-101-152-152-1-1-2-2-3-2-1-1-2-1-3-1-30 0-61-1-91-2-9 0-17 0-26 0-6-1-9 3-11 7-2 2-3 5-4 7-1 2-1 3-1 5 0 18 0 37 0 56 0 2 1 5 3 7 1 2 3 3 5 4 16 7 32 14 48 21 30 14 58 31 85 50 9 6 17 14 24 22 0 0 1 1 1 2 0 5 0 10 0 15 0 1-1 2-1 3-6 8-12 16-17 24-2 5-4 11-6 16-3 6-5 13-7 19-1 1-2 2-3 3-4 3-7 6-9 9-3 4-4 9-4 13 0 1 0 2 0 3 1 4 2 9 4 14 4 9 4 18 3 28-2 23-1 46 5 69 7 28 25 46 53 53 24 6 49 5 72-1 25-7 42-24 51-48 4-10 6-20 6-30 1-12 2-23 2-34 0-7-1-14-1-22 0-1 0-2 0-3 5-8 7-17 6-26-1-6-2-12-5-17-2-3-4-5-7-7-2-1-3-3-4-5-2-13-7-25-13-36-5-7-11-14-16-21-1-2-2-4-2-5 0-5 0-9 0-13 0-1 0-1 1-2 0-1 0-2 1-2 6-6 13-12 19-19z m93-45c-1-1-2-2-2-2-13-13-26-26-39-39 0-1-1-1-2-2-1 0-2 0-3 0-14 0-28 0-43 0-2 0-3-1-3-3-3-19-5-39-8-58 0-2-1-2-2-2-15-3-30-6-45-9-1 0-2-1-3-1 0-1-1-2-1-3-3-12-6-24-9-37-1-2-2-3-4-3-15 0-30 0-45 0l-2 0c-4 9-8 19-11 28 0 1 0 1 0 2 1 0 1 1 1 1 8 8 16 16 24 24 17 17 34 34 51 52 24 24 49 48 73 73 8 8 17 17 25 26 1 0 1 1 2 2 0 1 0 1-1 2-7 21-6 42 4 63 14 27 36 44 67 48 27 3 51-4 71-23 9-9 17-19 21-31 5-12 6-25 5-38-2-38-36-71-69-77-18-3-36-2-52 7z m81 101c0 1 0 2 0 3-1 14-8 21-22 20-5-1-9-2-12-5-3-3-6-6-7-10-1-5-1-9 0-13 1-4 4-8 7-11 4-2 7-4 12-4 4-1 8 0 11 2 8 4 12 9 11 18z m-151-214c2 13 4 25 6 37 6 0 11 0 16 0 3 0 6 0 9 1 5 0 10 2 14 6 10 10 21 20 31 30 1 0 2 1 2 1 1 0 2 0 3-1 9-3 18-3 27-2l14 1c0-1 0-2 0-3 0-18 0-35 0-52-1-3-1-6-2-9-1-2-2-3-3-4-1-2-3-3-5-4-8-4-16-2-25-2-8 0-17 0-26 0l-59 1c0 0-1 0-2 0z"/>
<glyph glyph-name="parent-company" unicode="&#69;" d="M234 215l-20 0 0 10 20 0 0 50-20 0 0 11 20 0 0 49-20 0 0 9 20 0 0 51-31 0 0-21-40 0 0 50 71 0 0 58 108 0 0-117 68 0 0-237-196 0 0 39 20 0z m70-48c0 17-1 33-1 49l-31 0 0-49z m-1 238l0 49-33 0c1-16 1-33 2-49z m-31-10l0-50 31 0 0 50z m0-118l0-51 31 0 0 51z m101-51l0 51-31 0 0-51z m-70 60l0 49-31 0 0-49z m39 49l0-49 31 0 0 49z m31-119l-31 0 0-49 31 0z m96-86c-3 5-7 8-12 10-10 4-19 8-29 10-2 0-3 0-2 2 0 12 0 24 0 37 0 0 0 0 0 0 6-1 12-3 18-5 14-4 28-10 40-17 9-5 16-12 20-21 7-14 5-30-7-42-8-8-17-14-27-18-20-9-42-15-63-18-25-4-49-7-74-9-21-2-42-4-64-5-15 0-31 0-46 1-21 1-43 3-64 5-27 3-54 5-80 12-18 4-35 11-52 19-7 4-14 10-19 16-5 7-8 15-8 23 0 9 3 17 8 23 7 8 15 14 23 18 16 8 33 14 51 18 0 0 0 0 1 0l0-38c-8-3-16-5-24-8-7-2-15-5-20-13 3-2 5-4 8-6 9-4 18-8 27-10 28-8 57-14 86-17 24-3 49-4 74-5 32-1 63 0 95 3 38 3 75 10 111 21 7 2 14 5 21 8 3 2 6 4 8 6z m-286 35l20 0 0-37-105 0 0 236 105 0 0-28-20 0 0-50 18 0 0-69-18 0z m-49 61l50 0 0 51-50 0z m0-9l0-51 28 0 0 51z m0 118l0-49 28 0 0 49z"/>
<glyph glyph-name="headquarters" unicode="&#70;" d="M240 4l-195 0 0 30 30 0 0 4c0 135 0 269 0 404 0 1 1 2 1 3 1 1 2 2 3 2 53 21 106 43 158 64 1 0 2 0 3 1z m-78 175l0-51 42 5 0 49z m42 291c-1 0-2 0-2-1-13-5-25-10-38-14-1 0-2-1-2-2 0 0-1-1 0-2 0-14 0-28 0-43 0 0 0-1 0-2 0 0 0 0 0 0 14 4 27 8 40 13 1 0 1 1 2 1 0 1 0 1 0 2 0 6 0 13 0 19z m0-75c-14-4-27-7-40-11-1 0-1 0-1-1 0 0-1 0-1 0 0-1 0-1 0-1-1-1-1-1 0-1 0-14 0-28 0-41 0-1 0-2 0-2 13 3 26 6 40 9 2 0 2 1 2 3 0 11 0 23 0 35z m0-142l-42-7 0-46 42 5z m0 72l-42-10 0-43 42 7z m-100-150l0-51 32 3 0 50z m32 270c0 0-1 0-1 0-10-4-20-8-30-11-2-1-2-2-2-4l0-40c0-1 0-1 1-2 10 3 20 5 30 8 1 0 1 0 1 1 1 0 1 0 1 0 0 1 1 1 1 1 0 1 0 1 0 2 0 14 0 28 0 43 0 0-1 1-1 2z m-32-122c1 0 1 0 2 0 9 2 19 5 28 7 2 0 3 1 3 3 0 14 0 27 0 40 0 1 0 2-1 3-1 0-1 0-2-1-9-2-19-5-28-8 0 0-1 0-1 0 0 0-1-1-1-1 0 0 0-1-1-1 0 0 0-1 0-1 0-13 0-26 0-39 0-1 1-1 1-2z m32-14c-1 0-1 0-2 0-9-2-19-5-28-7-2 0-3-1-3-3 0-12 0-24 0-36 0-1 0-2 1-3l32 7z m0-67c-10-2-20-4-30-5-2-1-3-1-3-4 0-11 0-22 0-34 0-1 0-2 1-3l32 3z m300-208l30 0 0-30-86 0 0 95-44 0 0-95-65 0 0 508 10-4c50-20 101-41 152-61 1 0 1-1 2-2 1-1 1-2 1-3 0-134 0-269 0-404z m-86 371c0 1 0 2 0 2 0 15 0 30 0 45 0 2-1 2-3 3l-36 14c-1 1-2 1-2 1 0 0-1-1-1-1 0-16 0-32 0-48 1-1 1-1 1-1 1-1 1-1 1-1 8-3 16-6 23-8z m-41-272l41-3 0 49-41 3z m40 205c1 0 1 0 1 0 0 15 0 29 0 43 0 1-1 2-2 3-8 2-15 4-23 6l-16 5c-1 0-1 0-1-1 0-15 0-30 0-45 0-2 1-2 2-2 5-1 10-3 15-4z m-40-85c0-1-1-1-1-2 0-14 0-29 0-44 0-2 1-2 3-3 7 0 14-1 21-2 6 0 12-1 18-1 0 0 0 0 0 1 0 14 0 28 0 42 0 2-1 2-2 3-4 0-8 1-12 1z m0 70l0-44 41-8c0 15 0 29 0 43 0 0 0 1-1 1 0 0 0 0-1 1-13 2-26 5-39 7z m99-148l-32 2 0-50 32-3z m-32 270c0-16 0-31 0-46 0-2 1-2 2-3 7-1 13-3 20-5 3-1 6-2 10-3 0 0 0 0 0 1 0 14 0 28 0 42 0 1 0 1-1 2 0 0 0 0-1 1-3 1-7 2-10 4z m32-123l0 45-32 9c0-15 0-29 0-44 0 0 0-1 1-1 0 0 0-1 1-1 10-2 20-5 30-8z m0-61l0 42-32 7 0-43z m0-65l0 33c0 7 0 7-7 9-8 1-16 2-24 4-1 0-1 0-1-1 0-13 0-27 0-40 0-1 1-1 1-1 0-1 1-1 1-1 10-1 20-2 30-3z"/>
<glyph glyph-name="ofa" unicode="&#71;" d="M193 23c-29 0-57 1-86 3-28 3-56 6-83 15-3 1-6 2-9 3-2 1-4 2-6 4-2 1-4 3-5 6-3 7-5 16-4 24 2 17 3 34 5 51 3 26 10 50 22 73 3 6 8 12 13 16 6 5 12 8 19 10 21 7 42 16 62 26 1 1 3 1 4 0 6-2 8-5 7-12-1-15-1-30-1-45 0-2 0-4 1-6 17-47 35-93 52-140 0-1 1-2 1-3 0-1 1-2 1-3 1-1 2-1 3-2 1 0 2 0 3 0 1 0 2 1 2 1 2 2 4 4 5 7 17 46 35 92 52 139 1 2 1 5 1 7-1 17-2 34-2 51 0 0 0 1 0 2 0 0 1 1 1 1 5 4 9 4 15 0 16-10 35-16 54-22 8-2 15-6 22-10 5-4 8-9 11-14 10-18 17-37 21-57 4-24 7-48 7-72 1-9-1-19-4-28 0-1-1-2-1-2-1-1-1-1-2-2-18-6-36-10-55-13-26-4-53-6-80-7-15 0-30-1-46-1z m-98 358c-3 10-5 21-5 31-1 10 1 19 5 28 5 10 11 20 18 29 18 23 41 31 69 27 22-4 43-11 62-23 23-14 34-35 33-62 0-9-2-19-4-28 0-1 0-1 0-2 0 0 0-1 0-1 5-4 6-10 6-16 0-8-1-16-4-24-1-3-2-5-4-7 0-1 0-2 0-3-5-23-16-44-32-60-9-10-21-18-33-23-22-8-42-4-59 11-23 18-38 42-44 71 0 2 0 3-1 4-3 3-5 7-5 11-2 10-4 20-5 30-1 1-1 1-1 2 0 1 1 2 1 2 0 1 1 1 1 2 1 0 1 1 2 1z m413-70c-10-2-20-4-30-6-1-1-2-1-3-1 0-1-1-1-1-2-6-10-6-10-2-20 2-4 4-9 6-14 1-1 1-2 2-4 0 0 0-1 0-1 0-1 0-1 0-2 0 0 0-1-1-1 0-1-1-1-1-1-9-5-18-11-27-16 0 0-1-1-1-1-1 0-1 0-2 0-1 0-1 0-2 1 0 0-1 0-1 1 0 0-1 1-1 1-6 7-11 15-17 22-1 1-1 1-2 1-4 0-8 0-12 0-1 0-2-1-3-2-7-7-13-15-20-22 0-1 0-1-1-1 0 0 0-1-1-1 0 0-1 0-1 1 0 0-1 0-1 0-7 5-15 10-22 14-1 1-2 2-3 2-4 0-4 3-3 5 4 9 7 17 10 25 1 1 1 2 1 4 0 1 0 2-1 3 0 0-1 1-1 2-2 5-6 6-12 7-7 1-14 2-21 4-1 0-1 0-2 0 0 0-1 1-1 1 0 1-1 1-1 2 0 0 0 1 0 1 0 9 0 18 0 28l0 3c11 2 21 4 31 6 1 0 1 0 2 1 0 0 1 1 1 1 1 2 2 4 3 6 1 1 2 3 2 4 0 2 0 4-1 5-3 6-5 12-7 17-1 2-2 4-3 5-1 4-1 4 3 6 1 1 2 2 3 3 3 2 6 3 9 5 3 2 6 5 9 7 5 5 9 5 14-1 5-6 10-13 15-20 0-1 1-1 1-1 1-1 2-1 2-1 4 0 7 0 10 0 1 0 3 1 3 2 6 7 13 14 19 21 0 1 0 1 1 1 0 1 1 1 1 1 1 0 1 0 2 0 0 0 1 0 1-1 8-4 17-8 25-12 5-3 5-3 3-9-3-8-6-16-9-25-1 0-1-1-1-2 0-1 0-2 1-2 1-3 3-6 5-8 1-1 2-1 3-1 7-1 14-2 21-3 0 0 1 0 2 0 7-2 7-3 7-10l0-28z m-59 19c-1 4-1 8-2 11-2 10-10 14-18 17-4 3-9 3-14 3-5-1-10-3-14-6-7-5-10-13-12-21-1-3-1-7 0-10 2-12 10-19 21-23 4-2 9-2 14-2 16 3 25 15 25 31z m-238-100c-7-11-14-21-22-31 6-5 11-10 17-15 1-1 2-2 3-4 1-2 1-4 0-6-7-37-13-75-20-113 0-1-1-2-2-3 0 1-1 2-1 4-7 38-14 77-20 116-1 0-1 1 0 2 0 1 0 1 1 2 6 5 13 11 19 17l-22 31c7-3 15-5 24-5 8 0 16 1 23 5z"/>
<glyph glyph-name="admin" unicode="&#72;" d="M247 259c13-13 30-20 47-28 9-4 18-7 27-10 27-9 44-27 53-53 7-17 10-34 12-52 0-10-1-20-1-30-1-6-2-12-3-18-2-7-4-14-6-21 0-1 0-1-1-2-1-1-1-1-2-2-22-8-45-14-68-17-28-5-56-7-85-8-33-1-65 0-98 2-31 3-61 7-91 16-7 2-14 5-21 8-1 0-2 1-2 2-6 15-8 30-8 46 0 16 0 32 2 48 4 37 22 64 57 79 11 4 23 8 34 13 15 5 29 13 41 23l2 2c3 2 4 2 7-1 6-5 12-9 18-14 23-12 45-11 67 2 7 5 13 9 19 15z m-52-12c-14 0-28 6-38 16-20 17-34 41-39 67-1 2-1 3-2 4-5 8-9 16-12 25 0 2-1 5-1 7 0 2 0 4 1 5 2 3 3 7 6 9 2 1 2 3 1 4-3 13-3 26-4 39-1 16 6 29 16 40 13 13 28 24 45 31 6 3 13 4 20 2 26-4 49-15 70-30 9-7 16-16 19-26 2-5 2-10 2-15-1-14-3-28-5-42 0 0 0-1 0-1 1-1 1-1 1-1 2-1 3-3 4-4 1-2 1-3 1-5 0-7 1-14 0-21-1-4-2-8-4-11-2-4-3-8-5-12-6-24-19-46-37-64-9-9-22-15-35-17-2 0-3 0-4 0z m167 52l-27 3 0 0c-7 2-7 2-7 9 0 8 0 16 0 25 0 2 1 3 3 4 9 1 18 2 27 4l0 0c1 0 3 0 4 1 1 1 2 2 2 4 1 2 3 4 4 7 1 1 1 2 0 3-2 7-6 15-9 22 0 2-1 5-1 7 0 1 0 1 0 2 0 0 1 1 1 1 5 3 10 6 15 9 5 3 9 6 14 10 0 0 1-1 1-1 7-8 14-16 20-25 1-1 1-1 2-2 1 0 2 0 2 0 4 0 8-1 11 0 3 2 4 5 6 8 5 6 10 11 15 17 0 0 0 0 1 1 0 0 1 0 1 0 1 0 1 0 2 0 0 0 1 0 1 0 9-5 18-10 28-15 0-1 0-1 0-2 1 0 1-1 1-1-1-4-2-8-3-12-3-5-5-11-8-17-1-1-1-1-1-2 0-1 0-2 1-3 1-2 3-5 5-8 1-1 3-1 4-1 7-2 15-3 22-4 9-2 9-3 9-11 0-8 0-16 0-24 0-2-1-3-3-4l-22-4 0 0c-6 0-11-1-13-8-4-3-3-7-1-12 3-6 6-12 8-18 1-2 1-4 2-6 0-1 0-2-1-2 0-1 0-2-1-2-9-5-18-11-27-16-1 0-1-1-2-1 0 0 0 0-1 0 0 0-1 1-1 1-1 0-1 0-1 1-3 3-7 7-10 11-3 4-7 9-10 14-1 0-2 1-3 1-3 0-6 0-9 0-1 0-2 0-3-1-1 0-2-1-3-2-5-7-10-14-15-21-3-5-3-4-8-2-9 5-17 10-26 15 0 1 0 1 0 1-1 1-1 1-1 2 1 3 2 6 3 9 2 7 5 13 8 20 1 1 1 2 1 4-1 1-1 2-2 3-2 2-4 5-5 8z m56-6c1 0 1 0 2 0 11 0 20 4 24 16 3 7 5 14 3 22-2 5-3 10-8 14-4 3-10 6-15 8-6 1-11 1-17-1-6-2-10-5-14-10-3-4-5-8-6-13-1-5 0-10 1-15 1-6 3-11 8-14 6-5 14-8 22-7z"/>
<glyph glyph-name="user" unicode="&#73;" d="M256 256c71 0 128 57 128 128 0 71-57 128-128 128-71 0-128-57-128-128 0-71 57-128 128-128z m0-64c-85 0-256-43-256-128l0-32c0-18 14-32 32-32l448 0c18 0 32 14 32 32l0 32c0 85-171 128-256 128z"/>
<glyph glyph-name="marketing-project" unicode="&#74;" d="M364 77c4 6 8 11 11 16 14 21 22 45 22 69 1 24-3 46-13 67-21 41-54 68-100 77-28 6-56 4-82-6-38-14-76-51-87-97-10-44-2-85 26-121l3-4c-1-1-2-1-3-1l-121 0c-13 1-20 7-20 20l0 2c0 92 0 184 0 275 0 3 0 5 1 8 0 4 2 7 5 10 3 3 7 4 10 5 3 0 5 0 7 0 81 0 163 0 244 0 2 0 4 0 5 1 2 0 3 1 4 2 17 20 34 39 51 58 3 3 6 5 9 7 3 1 7 2 11 2 47 0 95 0 143 0 2 0 5-1 7-2 3-1 5-2 7-4 3-4 4-8 4-12 0-116 0-233 0-349 0-4 0-7-1-10 0-3-2-6-4-8-3-3-6-4-9-4-2-1-4-1-7-1l-119 0c-1 0-2 0-4 0z m-216 89c1 48 33 92 79 103 39 10 74 2 103-26 15-14 26-31 30-51 7-35 1-67-23-94-19-22-45-36-74-38-20-2-41 3-59 13-8 5-16 10-24 17-15 13-25 31-29 50-1 9-2 17-3 26z m108 84c-47 1-83-38-85-79-1-11 1-22 5-33 4-10 10-20 17-28 8-8 17-15 27-20 10-4 21-7 32-7 12-1 23 1 33 5 11 4 20 10 28 18 8 7 15 17 19 27 5 10 7 21 8 32 0 11-2 22-6 33-5 10-11 19-18 27-8 8-18 14-28 19-10 4-21 6-32 6z m29 213c-3-4-5-6-7-8-12-13-24-25-37-38 0-1-1-2-3-2-1-1-2-1-3-1-29 0-57 0-86 0l-137 0c0 6 0 11 0 16 0 4 0 8-1 11 0 3 0 5 1 7 0 2 1 4 3 5 2 3 5 5 8 7 3 1 6 2 9 2 3 0 7 1 10 1l243 0z m-30-345c-23-2-49 20-49 49 0 26 24 48 49 48 27 0 50-21 50-48 0-6-1-13-4-19-2-6-6-11-11-16-4-5-10-8-16-11-6-2-12-3-19-3z m-1 25c4 0 8 1 12 2 3 2 6 5 9 8 3 4 4 9 4 14 0 5-2 10-5 14-3 4-8 7-13 8-5 1-10 1-15-1-3-2-6-4-9-7-2-3-3-6-4-10-1-3-1-7-1-10 1-4 2-7 4-10 2-3 5-5 8-6 4-1 7-2 10-2z"/>
<glyph glyph-name="sub-marketing-project" unicode="&#75;" d="M469 443l-5 0c-36 0-72 0-109 0-1 0-2 0-4-1-1 0-2-1-3-2-17-20-35-40-52-60-3-3-6-7-10-7-3-1-5-1-7-1l-239 0 0-240 40 0 0-38-59 0c-2 0-3 0-5 1-10 1-15 6-16 16 0 2 0 3 0 4 0 92 0 184 0 276 0 3 0 5 1 8 0 3 2 5 4 7 2 2 4 4 7 4 4 1 8 1 12 1 81 0 162 0 242 0 2 0 4 0 6 1 2 1 3 2 4 3 16 19 33 38 49 57 2 1 3 2 4 3 1 2 3 4 4 5 2 1 5 2 7 2 1 0 3 0 4 0l142 0c2 0 4 0 6-1 4 0 8-2 10-4 3-3 5-7 6-11 0-2 0-4 0-6 0-115 0-230 0-344 0-3 0-5 0-7-1-4-2-7-5-10-2-2-6-4-9-4-2-1-4-1-6-1l-60 0c-1 0-3 0-4 0l0 38 45 0z m-362-258c0 82 67 145 144 147 83 1 147-66 149-142 3-84-66-150-144-151-80-2-150 63-149 146z m257-3c0 30-11 58-32 79-21 21-49 33-78 33-60 0-109-52-110-109-1-61 50-110 109-111 60 0 112 51 111 108z m-82 297c-4-5-9-10-14-15-9-10-18-19-27-29-1 0-2-1-3-2-1 0-2 0-3 0-74 0-147 0-220 0-1 0-2 0-4 0 0 2 0 3 0 4 0 7 1 15-1 22 0 2 0 3 1 5 0 1 1 3 2 4 2 3 5 6 8 8 3 2 7 3 11 3 3 0 5 1 8 1l242 0z m-29-380c-11 0-22 2-33 6-10 4-20 11-28 19-8 8-15 17-19 28-4 10-6 22-6 33 0 23 9 45 25 61 17 17 39 26 62 26 23 0 45-10 61-26 16-16 25-38 25-61 0-50-40-88-87-86z m1 35c24-1 50 20 50 51 0 31-23 51-50 51-28 0-51-25-51-51 0-31 28-52 51-51z m25 51c0-7-3-13-7-18-5-5-12-8-18-8-7 0-14 3-18 8-5 4-8 11-8 18 0 3 1 6 2 9 1 4 3 6 5 9 3 2 5 4 9 5 3 2 6 2 9 2 4 0 7 0 10-1 3-2 6-4 8-6 3-2 5-5 6-8 1-3 2-7 2-10z"/>
<glyph glyph-name="master-project" unicode="&#76;" d="M423 65l0 39c3 0 7 0 11 0 4 0 8 0 12 0l23 0 0 308c-2 0-3 1-5 1-36 0-72 0-108 0-2 0-3-1-4-1-2-1-3-2-4-3-17-19-34-38-51-58-2-3-5-5-9-7-3-1-7-2-11-2-77 0-154 0-231 0l-6 0 0-238 41 0 0-39c-1 0-2 0-3 0-19 0-38 0-58 0-12 0-20 8-20 20 0 21 0 41 0 61 0 71 0 142 0 213 0 3 0 6 1 9 1 3 3 5 5 7 1 2 4 4 6 5 2 1 5 1 7 1 2 0 4 0 6 0 80 0 160 0 240 0 2 0 4 1 6 1 2 1 3 2 4 4 17 19 33 38 50 58 2 2 5 4 8 6 3 1 6 2 10 2l143 0c13 0 22-9 22-22 0-115 0-230 0-345 0-3 0-5-1-8-1-2-2-4-4-6-2-2-4-4-6-5-3-1-5-1-8-1-1 0-2 0-3 0z m-284 167c-21-1-31 15-30 29 1 6 4 12 8 16 5 5 11 7 17 8 6 0 13-2 18-5 5-4 8-10 10-16 1-5 0-10-2-14 1-1 1-1 1-1 15-6 31-8 47-8 13 1 24 6 33 17 1 1 2 2 3 4-1 0-1 1-2 1-3 1-6 3-9 6-2 2-4 6-4 9-2 10-1 19 5 26 4 5 9 8 15 9 5 1 11 1 16-1 5-2 9-6 12-11 3-4 5-9 4-15 0-3 0-5-1-8-1-3-2-6-4-9-3-2-5-4-8-5l-4-2c8-15 19-25 36-27 14-1 26 2 39 6 3 1 7 3 11 4-2 5-3 10-3 15 0 6 3 11 7 16 4 4 9 7 15 8 5 0 10-1 14-3 5-3 8-7 10-12 3-5 3-11 2-17-1-5-3-10-7-15-5-4-11-7-18-7-1 0-3 0-4 0-2-4-3-9-4-13-6-19-12-39-18-59-1-3-1-5-1-8 0-7 0-15 0-23-3-1-175-1-181 0 0 2 0 4 0 6 1 15-1 30-6 44-6 17-10 34-15 51-1 1-1 3-2 4z m-128 170c0 5-1 10-1 15 0 4 0 8-1 11 0 2 0 4 0 6 1 1 2 3 3 4 2 4 5 6 9 8 4 2 8 3 12 3 1 0 3 0 5 0l244 0c-3-3-5-5-7-7-12-13-24-25-35-37-1-1-2-2-3-3-1 0-3 0-4 0-72 0-145 0-217 0-2 0-3 0-5 0z m332-299l0-38-181 0 0 38c3 1 174 1 181 0z"/>
<glyph glyph-name="sub-project" unicode="&#77;" d="M254 64c-77 0-155 0-233 0-8 0-14 3-18 10-1 3-2 6-3 9 0 1 0 2 0 3 0 92 0 183 0 274 0 3 0 6 1 8 0 4 2 7 4 9 2 3 5 4 9 4 3 1 6 1 9 1 82 0 163 0 245 0 1 0 3 0 4 1 2 1 3 2 4 3 17 19 33 38 50 58 2 2 5 4 8 6 3 1 6 2 10 2 47 0 95 0 142 0 14 0 22-9 22-22l0-343c0-2 0-4 0-7-1-10-7-16-17-16-1 0-3 0-5 0z m-218 278c0 0-1-1-1-1 0-79 0-157 0-235 0-1 0-2 1-3 0 0 0 0 0 0l0-1c9-1 427 0 430 1l0 309-4 0c-37 0-73 0-110 0-1 0-2 0-4-1-1 0-2-1-3-2-17-20-33-39-50-58-2-2-4-4-7-5-4-3-8-4-13-4-77 0-155 0-233 0z m246 106l-16-16c-9-10-18-19-27-28 0-1-1-2-2-2-1 0-2-1-4-1-73 0-147 0-221 0-1 0-2 0-4 1 0 5 0 9 0 14 0 3 0 7-1 10 0 2 0 4 0 6 1 2 2 4 3 6 2 3 5 6 9 8 4 2 8 3 12 3 2 0 4 0 6 0l244 0z"/>
<glyph glyph-name="beta" unicode="&#78;" d="M360 512c3 0 6-1 9-1 17-3 33-9 45-23 6-7 10-16 12-26 2-12 1-24-5-36-4-7-8-13-14-19-12-12-26-23-41-33-8-6-16-12-23-18-7-5-7-5-2-12 7-8 14-16 21-25 12-13 23-27 31-43 5-8 8-17 10-26 2-13 0-26-5-38-9-20-21-38-40-50-13-9-28-15-43-16-8-1-15-2-22-2-19-1-36 6-50 19-5 5-11 10-14 17-2 4-3 7-4 11-1-3-2-5-3-8-7-30-15-60-25-89-3-11-8-22-13-32-11-19-25-36-43-48-8-5-16-8-24-10-8-1-17-1-25 1-19 4-29 21-31 34-2 9-1 19 3 27 2 3 4 5 7 7 8 7 18 10 29 7 8-2 15-8 19-15 2-4 2-8 2-12-1-1-1-1 0-2 0 1 1 1 1 2 6 11 11 22 14 34 15 51 30 101 44 151 13 43 25 86 37 129 5 18 10 35 16 52 9 26 22 48 44 65 17 14 38 24 61 27l7 1z m-119-275c2 1 3 2 5 3 2 1 4 2 6 3 6 2 13 2 19-1 12-6 17-13 15-26 0-4-2-7-2-11-1-2-1-4-1-6 0-9 3-14 11-17 7-3 14-4 21-2 8 1 15 3 21 9 3 3 5 6 8 9 3 4 5 8 6 13 1 5 1 10 0 15-3 12-9 23-17 32-6 8-12 15-19 22-9 10-16 21-21 33-4 6-5 14-5 21 1 8 3 15 7 22 6 9 13 17 20 24 9 9 18 17 27 26 9 9 17 19 24 29 4 7 6 14 7 22 0 9-4 15-12 17-11 3-24 1-34-5-9-5-16-13-21-23-5-10-9-22-13-33-14-48-28-95-42-142-4-12-7-23-10-34z"/>
<glyph glyph-name="eye" unicode="&#79;" d="M256 431c-116 0-216-73-256-175 40-102 140-175 256-175 116 0 216 73 256 175-40 102-140 175-256 175z m0-291c-64 0-116 52-116 116 0 64 52 116 116 116 64 0 116-52 116-116 0-64-52-116-116-116z m0 186c-39 0-70-31-70-70 0-39 31-70 70-70 39 0 70 31 70 70 0 39-31 70-70 70z"/>
<glyph glyph-name="eye-slash" unicode="&#80;" d="M256 385c64 0 116-52 116-117 0-12-2-23-5-34l71-71c32 29 58 65 74 106-40 101-140 174-256 174-30 0-58-5-85-13l51-51c11 3 22 6 34 6z m-216 77c-9-9-9-23 0-32l46-46c-38-30-68-70-86-116 40-102 140-174 256-174 35 0 69 7 100 19l64-63c9-10 23-10 32 0 10 9 10 23 0 32l-379 380c-9 10-24 10-33 0z m216-310c-64 0-116 52-116 116 0 18 4 35 11 50l37-36c-1-5-2-9-2-14 0-38 31-69 70-69 5 0 9 0 13 1l37-36c-15-8-32-12-50-12z m69 124c-3 33-29 58-61 61z"/>
<glyph glyph-name="clone" unicode="&#81;" d="M419 489c0 13-11 23-23 23l-349 0c-26 0-47-21-47-47l0-349c0-12 10-23 23-23 13 0 24 11 24 23l0 326c0 13 10 23 23 23l326 0c12 0 23 11 23 24z m93-442l0 325c0 26-21 47-47 47l-325 0c-26 0-47-21-47-47l0-325c0-26 21-47 47-47l325 0c26 0 47 21 47 47z m-372 23l0 279c0 13 10 23 23 23l279 0c13 0 23-10 23-23l0-279c0-13-10-23-23-23l-279 0c-13 0-23 10-23 23z"/>
<glyph glyph-name="user-1" unicode="&#82;" d="M256 256c71 0 128 57 128 128 0 71-57 128-128 128-71 0-128-57-128-128 0-71 57-128 128-128z m0-64c-85 0-256-43-256-128l0-32c0-18 14-32 32-32l448 0c18 0 32 14 32 32l0 32c0 85-171 128-256 128z"/>
<glyph glyph-name="list-unordered" unicode="&#83;" d="M58 294c-22 0-39-17-39-38 0-21 17-38 39-38 21 0 38 17 38 38 0 21-17 38-38 38z m0 154c-22 0-39-17-39-38 0-22 17-39 39-39 21 0 38 17 38 39 0 21-17 38-38 38z m0-307c-22 0-39-18-39-39 0-21 18-38 39-38 21 0 38 17 38 38 0 21-17 39-38 39z m102-64l307 0c14 0 26 11 26 25 0 14-12 26-26 26l-307 0c-14 0-26-12-26-26 0-14 12-25 26-25z m0 153l307 0c14 0 26 12 26 26 0 14-12 26-26 26l-307 0c-14 0-26-12-26-26 0-14 12-26 26-26z m-26 180c0-14 12-26 26-26l307 0c14 0 26 12 26 26 0 14-12 25-26 25l-307 0c-14 0-26-11-26-25z"/>
<glyph glyph-name="exclamation-circle" unicode="&#84;" d="M256 512c-141 0-256-115-256-256 0-141 115-256 256-256 141 0 256 115 256 256 0 141-115 256-256 256z m0-282c-14 0-26 12-26 26l0 102c0 14 12 26 26 26 14 0 26-12 26-26l0-102c0-14-12-26-26-26z m26-102l-52 0 0 51 52 0z"/>
<glyph glyph-name="pencil" unicode="&#85;" d="M26 116l0-78c0-7 5-12 12-12l78 0c4 0 7 1 9 3l280 280-96 96-280-280c-2-2-3-5-3-9z m453 267c10 10 10 26 0 36l-60 60c-10 10-26 10-36 0l-47-47 96-96z"/>
<glyph glyph-name="arrow-down" unicode="&#86;" d="M479 274c0-10-4-18-11-25l-186-187c-7-7-16-10-26-10-10 0-19 3-26 10l-186 187c-7 6-11 15-11 25 0 10 4 19 11 26l21 22c8 7 17 10 26 10 11 0 19-3 26-10l84-84 0 201c0 10 4 18 11 26 7 7 16 10 26 10l36 0c10 0 19-3 26-10 7-8 11-16 11-26l0-201 84 84c7 7 15 10 26 10 9 0 18-3 26-10l21-22c7-7 11-16 11-26z"/>
<glyph glyph-name="sticky-note" unicode="&#87;" d="M329 155l0-118-265 0c-8 0-14 2-19 8-6 5-8 11-8 19l0 384c0 8 2 14 8 19 5 6 11 8 19 8l384 0c8 0 14-2 19-8 6-5 8-11 8-19l0-265-118 0c-8 0-15-3-20-8-5-5-8-12-8-20z m37-9l109 0c-3-15-9-28-19-37l-53-53c-9-10-22-16-37-19z"/>
<glyph glyph-name="thumbnails" unicode="&#88;" d="M155 422l-54 0c-6 0-11-5-11-11l0-54c0-6 5-12 11-12l54 0c6 0 12 6 12 12l0 54c0 6-6 11-12 11z m128 0l-54 0c-6 0-11-5-11-11l0-54c0-6 5-12 11-12l54 0c6 0 11 6 11 12l0 54c0 6-5 11-11 11z m139-11c0 6-5 11-11 11l-54 0c-6 0-12-5-12-11l0-54c0 0 0 0 0 0 0-6 6-12 12-12l54 0c6 0 11 6 11 12l0 54z m-267-117l-54 0c-6 0-11-5-11-11l0-54c0-6 5-11 11-11l54 0c6 0 12 5 12 11l0 54c0 6-6 11-12 11z m128 0l-54 0c-6 0-11-5-11-11l0-54c0-6 5-11 11-11l54 0c6 0 11 5 11 11l0 54c0 6-5 11-11 11z m128 0l-54 0c-6 0-12-5-12-11l0-54c0 0 0 0 0 0 0-6 6-11 12-11l54 0c6 0 11 5 11 11l0 54c0 6-5 11-11 11z m-256-127l-54 0c-6 0-11-6-11-12l0-54c0-6 5-11 11-11l54 0c6 0 12 5 12 11l0 54c0 6-6 12-12 12z m128 0l-54 0c-6 0-11-6-11-12l0-54c0-6 5-11 11-11l54 0c6 0 11 5 11 11l0 54c0 6-5 12-11 12z m128 0l-54 0c-6 0-12-6-12-12l0-54c0-6 6-11 12-11l54 0c6 0 11 5 11 11l0 54c0 6-5 12-11 12z"/>
<glyph glyph-name="chat" unicode="&#89;" d="M148 200c0 0 180 0 180 0 0 0 1 0 3 1 0 0 2 0 2 0 0 0 0-47 0-47 0-14-5-26-15-36-10-10-22-16-36-16 0 0-128 0-128 0 0 0-77-76-77-76 0 0 0 76 0 76 0 0-26 0-26 0-13 0-25 6-36 16-10 10-15 22-15 36 0 0 0 153 0 153 0 15 5 27 15 37 11 9 23 14 36 14 0 0 97 0 97 0 0 0 0-158 0-158m313 286c14 0 26-5 36-14 10-10 15-22 15-37 0 0 0-153 0-153 0-14-5-26-15-36-10-10-22-16-36-16 0 0-26 0-26 0 0 0 0-76 0-76 0 0-77 76-77 76 0 0-179 0-179 0 0 0 0 205 0 205 0 15 5 27 16 37 10 9 22 14 35 14 0 0 231 0 231 0"/>
<glyph glyph-name="link" unicode="&#90;" d="M434 165c0 7-2 14-8 19l-59 59c-5 6-12 8-20 8-8 0-14-3-20-9 0 0 2-2 5-5 3-3 5-5 6-6 1-1 3-3 5-6 2-2 3-4 3-7 1-2 1-5 1-8 0-7-2-14-8-19-5-5-11-8-19-8-3 0-5 0-8 1-2 1-5 2-7 4-3 1-4 3-6 4-1 1-3 3-6 6-3 3-4 5-5 5-6-5-9-12-9-20 0-8 2-15 8-20l58-59c6-5 12-8 20-8 7 0 14 3 19 8l42 41c6 6 8 12 8 20z m-201 201c0 8-2 14-8 19l-58 60c-6 5-12 8-20 8-7 0-14-3-19-8l-42-42c-6-5-8-12-8-19 0-8 2-14 8-19l59-60c5-5 12-8 20-8 8 0 14 3 20 9 0 1-2 3-5 6-3 3-5 5-6 6-1 1-3 3-5 5-2 3-3 5-3 7-1 3-1 5-1 8 0 8 2 14 8 20 5 5 11 8 19 8 3 0 5-1 8-1 2-1 5-2 7-4 3-2 4-3 6-4 1-1 3-3 6-6 3-3 4-5 5-6 6 6 9 13 9 21z m256-201c0-23-8-43-24-58l-42-42c-16-16-35-24-58-24-23 0-43 8-58 24l-59 60c-16 15-24 35-24 58 0 23 8 43 25 59l-25 25c-16-16-36-25-59-25-23 0-43 8-59 24l-59 60c-16 16-24 35-24 58 0 23 8 42 24 58l42 42c16 16 35 23 58 23 23 0 43-8 58-24l59-59c16-16 24-35 24-58 0-23-8-43-25-60l25-25c16 17 36 25 59 25 23 0 43-8 59-24l59-59c16-16 24-36 24-58z"/>
<glyph glyph-name="folder-open" unicode="&#48;" d="M519 240c0-6-3-12-9-19l-96-113c-8-10-20-18-35-25-14-6-28-10-41-10l-311 0c-6 0-12 1-17 4-5 2-7 6-7 12 0 6 3 12 8 19l96 113c9 10 20 18 35 25 15 7 28 10 41 10l311 0c6 0 12-1 17-4 5-2 8-6 8-12z m-98 98l0-45-238 0c-18 0-37-5-56-14-20-9-36-20-47-34l-97-113-1-2c0 1 0 2 0 4 0 1 0 2 0 3l0 274c0 18 6 33 19 46 12 12 27 18 45 18l91 0c18 0 33-6 45-18 13-13 19-28 19-46l0-9 156 0c17 0 32-6 45-19 12-12 19-27 19-45z"/>
<glyph glyph-name="folder" unicode="&#49;" d="M494 338l0-201c0-17-7-32-19-45-13-13-28-19-45-19l-348 0c-17 0-32 6-45 19-12 13-19 28-19 45l0 274c0 18 7 33 19 46 13 12 28 18 45 18l92 0c17 0 32-6 45-18 12-13 19-28 19-46l0-9 192 0c17 0 32-6 45-19 12-12 19-27 19-45z"/>
<glyph glyph-name="tag" unicode="&#50;" d="M165 384c0 10-4 19-11 26-7 7-16 11-26 11-10 0-19-4-26-11-7-7-11-16-11-26 0-10 4-19 11-26 7-7 16-11 26-11 10 0 19 4 26 11 7 7 11 16 11 26z m304-165c0-10-3-18-10-25l-140-141c-8-7-17-10-26-10-11 0-19 3-26 10l-204 205c-8 7-14 16-19 29-5 12-7 23-7 33l0 119c0 10 3 18 10 26 8 7 16 10 26 10l119 0c10 0 21-2 33-7 13-5 22-11 30-19l204-204c7-7 10-16 10-26z"/>
<glyph glyph-name="ban" unicode="&#51;" d="M411 257c0 31-8 59-24 84l-216-215c26-17 55-25 85-25 21 0 41 4 60 12 20 8 36 19 50 33 14 14 25 31 33 50 8 19 12 40 12 61z m-285-86l216 216c-26 17-55 26-86 26-28 0-54-7-78-21-24-14-43-33-57-57-13-24-20-50-20-78 0-31 8-59 25-86z m349 86c0-30-5-59-17-86-12-27-27-51-47-70-19-20-43-35-70-47-27-12-55-17-85-17-30 0-58 5-85 17-27 12-51 27-70 47-20 19-35 43-47 70-12 27-17 56-17 86 0 30 5 58 17 85 12 28 27 51 47 71 19 19 43 35 70 46 27 12 55 18 85 18 30 0 58-6 85-18 27-11 51-27 70-46 20-20 35-43 47-71 12-27 17-55 17-85z"/>
<glyph glyph-name="trash" unicode="&#52;" d="M388 341l-264 0c-7 0-12-5-12-12l0-256c0-6 5-12 12-12l264 0c7 0 12 6 12 12l0 256c0 7-5 12-12 12z m17 82l-101 0 0 16c0 6-5 12-12 12l-72 0c-7 0-12-6-12-12l0-16-100 0c-7 0-13-5-13-12l0-35c0-7 6-13 13-13l297 0c6 0 12 6 12 13l0 35c0 7-6 12-12 12z"/>
<glyph glyph-name="cloud-upload" unicode="&#53;" d="M347 265c0 3 0 5-2 7l-101 100c-1 2-4 3-6 3-3 0-5-1-7-3l-100-100c-2-2-3-5-3-7 0-3 1-5 3-6 1-2 3-3 6-3l64 0 0-101c0-2 1-4 3-6 2-2 4-3 6-3l55 0c3 0 5 1 7 3 1 2 2 4 2 6l0 101 64 0c3 0 5 1 7 3 2 2 2 4 2 6z m183-82c0-30-10-56-32-78-21-21-47-32-77-32l-311 0c-36 0-66 13-91 38-25 25-37 55-37 90 0 25 6 48 20 69 13 21 31 36 53 47 0 6 0 10 0 12 0 41 14 75 43 104 28 28 63 42 103 42 30 0 57-8 82-24 24-17 42-39 54-66 13 11 29 17 47 17 20 0 37-7 52-21 14-14 21-32 21-52 0-14-4-27-12-39 25-6 46-19 61-39 16-20 24-43 24-68z"/>
<glyph glyph-name="calendar-o" unicode="&#54;" d="M442 465l-23 0 0 24c0 13-11 23-23 23-13 0-24-10-24-23l0-24-232 0 0 24c0 13-11 23-24 23-12 0-23-10-23-23l0-24-23 0c-26 0-47-20-47-46l0-372c0-26 21-47 47-47l372 0c26 0 47 21 47 47l0 372c0 26-21 46-47 46z m-23-418l-326 0c-13 0-23 10-23 23l0 279 372 0 0-279c0-13-10-23-23-23z"/>
<glyph glyph-name="globe" unicode="&#55;" d="M256 475c40 0 77-9 110-29 34-20 60-46 80-80 20-33 29-70 29-110 0-40-9-77-29-110-20-34-46-60-80-80-33-20-70-29-110-29-40 0-77 9-110 29-34 20-60 46-80 80-20 33-29 70-29 110 0 40 9 77 29 110 20 34 46 60 80 80 33 20 70 29 110 29z m78-148c0-1-1-2-2-3-2-2-3-3-4-3 0 0 1 1 1 2 0 1 1 2 1 3 1 1 1 2 1 2 2 1 4 2 7 4 2 1 7 2 15 3 6 2 11 1 14-3 0 1 1 2 3 4 2 2 3 3 4 3 1 1 2 1 4 2 3 0 4 1 5 2l0 6c-2 0-4 1-5 2-1 2-2 4-2 6 0 0 0-1-1-2 0 1-1 2-2 2-1 0-2 0-3 0-1-1-2-1-3 0-1 0-3 1-4 2-1 1-2 2-2 4-1 3-1 4-1 5-1 1-2 2-3 3-1 1-2 2-3 3 0 0 0 1 0 1-1 1-1 2-1 2-1 1-1 1-1 2-1 0-1 0-2 0-1 0-1 0-2-1-1-1-1-2-2-3-1-1-1-1-1-1-1 0-2 0-2 0-1 0-1 0-1 0-1 0-1-1-2-1 0 0-1-1-1-1-1 0-2-1-3-1-1 0-1 0-2 0 3 1 3 2 0 3-2 0-4 1-5 1 2 0 3 1 2 3 0 2-1 3-2 4l1 0c0 1-1 2-2 2-2 1-3 2-5 3-2 1-3 1-4 2-1 1-5 1-10 2-5 1-8 1-9 0-1-1-1-2-1-3 0 0 0-2 1-4 1-1 1-3 1-3 0-1 0-3-2-4-1-1-2-2-2-3 0-2 2-3 4-5 3-1 4-3 3-6 0-1-2-3-4-4-3-2-4-3-5-4-1-1-1-3 0-5 0-2 1-4 3-5 0 0 0-1 0-1 0 0 0-1-1-1 0-1-1-1-1-1-1-1-2-1-2-1l-1-1c-2-1-4 0-6 2-2 2-3 4-4 7-1 5-3 8-4 9-5 1-8 1-9-1-1 3-5 5-11 8-5 2-11 2-17 1 1 0 1 2 0 4-1 3-3 4-5 4 0 1 1 3 1 5 0 2 0 3 0 4 1 2 2 4 3 6 1 0 1 1 2 3 2 1 2 2 3 3 1 2 1 2 2 2 6-1 11 0 14 3 1 1 2 3 3 5 1 2 2 4 3 5 2 1 3 2 4 2 1-1 2-1 4-2 2-1 3-1 4-1 3-1 5 0 5 3 0 2-1 4-2 5 2 0 2 2 1 5-1 2-2 2-3 3-2 1-5 0-7-2-2 0-2-1 0-2 0 0-1-1-3-3-1-2-3-4-4-5-2-1-3-1-5 2 0 0-1 1-1 3-1 3-2 4-3 4-2 0-3-1-5-4 1 2 0 3-3 4-3 2-5 2-7 3 4 2 3 4-2 7-1 1-3 2-6 2-2 0-4 0-5-1-1-2-2-3-2-4 0-1 0-1 1-2 1-1 2-1 3-2 1 0 2 0 4-1 1 0 2 0 2-1 3-1 4-3 2-4 0 0-1 0-2-1-1 0-2 0-3-1-1 0-2-1-2-1-1-1-1-2 0-4 1-2 0-3-1-4-1 1-1 3-2 5-1 2-2 4-2 5 1-2-1-3-7-2l-3 0c-1 0-2 0-5 0-2-1-4-1-6-1-1 1-2 1-3 3-1 1-1 3 0 5 0 1 0 1 1 1-1 1-2 1-3 3-2 1-3 2-3 2-9-3-18-7-27-12 1 0 2 0 3 1 1 0 2 1 4 2 2 0 2 1 3 1 6 3 10 3 12 2l1 2c3-3 5-6 6-8-1 1-4 1-9 1-3-1-5-3-6-4 1-2 2-4 2-5-1 1-2 2-4 3-1 1-3 2-4 3-1 1-3 1-4 2-3 0-5-1-6-1-28-15-51-36-68-63 2-1 3-2 4-2 1-1 1-1 1-3 0-2 1-3 1-3 0-1 1 0 3 1 2-2 2-4 1-6 0 0 5-2 13-7 3-4 5-6 6-6 0-3-1-4-3-6 0 1-1 2-3 3-1 1-2 2-2 1-1-1-1-3 0-5 1-3 2-4 3-4-1 0-2-1-3-4 0-3-1-7-1-10 0-4 0-6 0-7l1 0c-1-3 0-6 1-10 2-5 4-6 6-6-2 0 0-5 6-12 1-2 2-3 2-3 1 0 2-1 4-2 2-1 3-2 4-3 1-1 2-2 3-3 1-1 2-3 3-6 1-3 2-6 4-7-1-1 0-3 3-6 2-2 3-4 3-6-1 0-1 0-1 0 0-1-1-1-1-1 1-1 2-2 5-4 2-1 3-2 4-3 0-1 0-2 1-3 0-2 0-3 0-3 1-1 2-1 3-1 0 4-2 10-7 18-3 4-5 7-5 8-1 1-1 2-2 4 0 2 0 4-1 5 1 0 1-1 2-1 1 0 1 0 2-1 1 0 2-1 2-1 1 0 1-1 1-1-1-1 0-3 1-5 1-2 2-4 3-5 1-2 3-3 5-6 2-2 3-3 3-3 1-1 3-3 4-6 2-2 2-4 0-4 2 0 4-1 6-3 2-1 4-3 5-5 1-2 2-4 2-8 1-3 1-5 2-7 0-1 1-2 2-3 1-2 2-3 4-3l4-2 4-2c1-1 3-2 5-3 3-2 5-3 6-4 2 0 4-1 5-1 1 0 2 0 4 1 2 0 3 1 4 1 3 0 5-1 8-4 3-4 5-6 6-6 7-4 12-5 16-4-1 0 0 0 0-2 0-1 1-2 2-4 1-2 2-3 3-4 1-1 1-2 1-3 1-1 3-2 6-4 2-2 4-3 5-4 1 0 2 1 2 2-1-1 0-3 2-5 2-3 3-4 5-3 3 0 4 3 4 9-6-3-11-1-14 5 0 0 0 1-1 2 0 0-1 1-1 2 0 1-1 2-1 2 0 1 0 2 0 3 0 0 1 0 2 0 1 0 2 1 3 1 0 1 0 2-1 4-1 2-1 3-1 4 0 1-1 3-3 5-2 3-3 4-4 5-1-2-2-3-4-3-2 1-4 1-5 3 0 0 0-1 0-2-1 0-1-1-1-1-2 0-4 0-4 0 0 0 0 2 1 5 0 3 0 5 1 6 0 1 0 2 1 4 1 1 2 3 2 4 1 1 1 2 2 3 0 2-1 2-2 3-1 1-2 1-5 1-3 0-6-2-7-6 0 0-1-1-1-3 0-1-1-2-1-3-1-1-2-2-3-2-1-1-4-1-7-1-3 0-5 1-7 2-2 1-4 4-6 8-2 4-3 8-3 11 0 1 0 4 1 7 0 3 1 6 1 7 0 2-1 4-2 7 1 1 2 2 3 3 1 1 2 2 3 3 0 0 0 0 1 0 0 1 1 1 1 0 1 0 1 0 1 1 1 0 1 1 1 2 0 0 0 0-1 0-1 1-1 1-1 1 1 0 4 0 8 1 4 1 7 0 8-1 3-2 5-2 6 1 0 0 0 1-1 3 0 1 0 2 0 3 1-5 4-6 9-2 0-1 2-1 4-2 2 0 4 0 5-1 1 0 1-1 2-2 1 0 1-1 2-1 0 0 0 0 1 0 1 1 1 1 2 2 2-3 3-5 4-7 2-7 4-12 5-12 2-1 3-1 3-1 1 0 2 1 2 3 0 1 0 3 0 4 0 1-1 2-1 3l0 3 0 5 0 2c-3 1-5 2-6 4 0 1 0 3 1 5 1 2 2 3 4 5 0 0 1 1 2 1 2 1 3 1 5 2 1 1 3 2 3 2 4 4 6 7 5 10 1 0 2 1 3 3 0 0-1 0-2 1 0 0-1 1-2 1 0 1-1 1-1 1 2 1 2 2 1 4 1 1 1 2 2 3 0 2 1 3 2 3 2-2 4-2 6 0 1 1 1 3 0 4 1 2 3 3 6 3 3 1 5 2 5 3 2 0 2 0 3 1 0 0 0 1 0 3 0 2 0 3 1 3 0 1 2 2 4 3 2 1 3 1 4 1l5 4c0 0 0 1 0 1 3-1 6 0 8 3 2 2 2 4-1 6 0 1 0 2-1 2-1 1-3 1-4 2 0 0 1 0 3 0 1 0 2 0 3 0 3 2 2 4-2 5-3 1-7 0-12-3z m-46-251c39 7 72 25 100 54-1 1-2 1-4 1-1 1-3 1-3 1-4 2-6 2-7 3 0 1 0 2-1 3 0 1-1 2-2 3-1 0-2 1-4 2-1 1-2 2-3 2 0 1-1 1-2 2-1 1-1 1-2 1 0 1-1 1-2 2-1 0-2 0-2 0-1 0-2 0-3 0l-1 0c-1 0-1-1-2-1 0 0-1-1-1-1-1 0-1 0-1-1 0 0 0 0 0 0-4 3-8 5-11 6-1 0-2 1-3 1-1 1-2 2-3 2-1 1-2 1-3 1-1 0-2-1-3-2-1-1-1-3-2-4 0-2 0-4 0-4-1 1-1 2 0 5 1 2 1 4 0 5 0 1-1 2-3 1-1 0-2 0-3-1-1 0-2-1-3-2-2-1-2-2-3-2 0 0-1-1-2-2-2-1-2-1-3-2 0-1-1-2-1-3-1-2-1-3-2-3 0 0-1 1-3 1-2 1-3 1-3 2 1-2 1-5 1-10 1-5 1-8 2-11 1-6 0-10-4-14-5-4-8-8-8-11-1-4 0-7 3-7 0-2 0-4-2-6-1-3-2-5-2-6 0-2 0-3 1-5z"/>
<glyph glyph-name="file-text-o" unicode="&#56;" d="M456 403c5-5 10-12 14-21 4-9 5-18 5-25l0-330c0-7-2-14-8-19-5-5-11-8-19-8l-384 0c-8 0-14 3-19 8-6 5-8 12-8 19l0 458c0 7 2 14 8 19 5 5 11 8 19 8l256 0c8 0 16-2 25-6 9-4 17-8 22-13z m-127 70l0-107 108 0c-2 5-4 9-7 11l-89 90c-2 2-6 4-12 6z m110-436l0 292-119 0c-8 0-14 3-19 8-6 5-8 12-8 20l0 118-220 0 0-438z m-293 246c0 3 1 5 3 7 2 2 4 3 6 3l202 0c2 0 4-1 6-3 2-2 3-4 3-7l0-18c0-3-1-5-3-6-2-2-4-3-6-3l-202 0c-2 0-4 1-6 3-2 1-3 3-3 6z m211-64c2 0 4 0 6-2 2-2 3-4 3-7l0-18c0-3-1-5-3-7-2-1-4-2-6-2l-202 0c-2 0-4 1-6 2-2 2-3 4-3 7l0 18c0 3 1 5 3 7 2 2 4 2 6 2z m0-73c2 0 4-1 6-2 2-2 3-4 3-7l0-18c0-3-1-5-3-7-2-1-4-2-6-2l-202 0c-2 0-4 1-6 2-2 2-3 4-3 7l0 18c0 3 1 5 3 7 2 1 4 2 6 2z"/>
<glyph glyph-name="print" unicode="&#57;" d="M128 73l256 0 0 73-256 0z m0 183l256 0 0 110-46 0c-7 0-14 2-19 8-5 5-8 12-8 19l0 46-183 0z m329-18c0 5-2 9-5 13-4 3-8 5-13 5-5 0-9-2-13-5-4-4-5-8-5-13 0-5 1-10 5-13 4-4 8-6 13-6 5 0 9 2 13 6 3 3 5 8 5 13z m37 0l0-119c0-3-1-5-3-7-2-1-4-2-6-2l-64 0 0-46c0-8-3-14-8-19-6-6-12-8-20-8l-274 0c-8 0-14 2-20 8-5 5-8 11-8 19l0 46-64 0c-2 0-4 1-6 2-2 2-3 4-3 7l0 119c0 15 6 28 16 38 11 11 24 17 39 17l18 0 0 155c0 8 3 14 8 19 6 6 12 8 20 8l192 0c7 0 16-1 25-5 9-4 16-9 22-14l43-43c5-6 10-13 14-22 4-9 6-18 6-25l0-73 18 0c15 0 28-6 39-17 10-10 16-23 16-38z"/>
<glyph glyph-name="angle-down" unicode="&#33;" d="M399 302c0-3-1-5-3-7l-133-133c-2-2-5-3-7-3-2 0-5 1-7 3l-133 133c-2 2-3 4-3 7 0 2 1 4 3 6l15 15c1 1 4 2 6 2 3 0 5-1 7-2l112-113 112 113c2 1 4 2 7 2 2 0 5-1 6-2l15-15c2-2 3-4 3-6z"/>
<glyph glyph-name="angle-left" unicode="&#34;" d="M344 357c0-3-1-5-3-7l-112-112 112-113c2-1 3-4 3-6 0-3-1-5-3-7l-14-14c-2-2-5-3-7-3-2 0-5 1-7 3l-133 133c-2 2-3 4-3 7 0 2 1 4 3 6l133 133c2 2 5 3 7 3 2 0 5-1 7-3l14-14c2-2 3-4 3-6z"/>
<glyph glyph-name="angle-right" unicode="&#35;" d="M335 238c0-3-1-5-3-7l-133-133c-2-2-5-3-7-3-2 0-5 1-7 3l-14 14c-2 2-3 4-3 7 0 2 1 5 3 6l112 113-112 112c-2 2-3 4-3 7 0 2 1 4 3 6l14 14c2 2 5 3 7 3 2 0 5-1 7-3l133-133c2-2 3-4 3-6z"/>
<glyph glyph-name="angle-up" unicode="&#36;" d="M399 174c0-3-1-5-3-7l-15-14c-1-2-4-3-6-3-3 0-5 1-7 3l-112 112-112-112c-2-2-4-3-7-3-2 0-5 1-6 3l-15 14c-2 2-3 4-3 7 0 2 1 4 3 6l133 133c2 2 5 3 7 3 2 0 5-1 7-3l133-133c2-2 3-4 3-6z"/>
<glyph glyph-name="bars" unicode="&#37;" d="M475 128l0-37c0-5-1-9-5-12-4-4-8-6-13-6l-402 0c-5 0-9 2-13 6-4 3-5 7-5 12l0 37c0 5 1 9 5 13 4 3 8 5 13 5l402 0c5 0 9-2 13-5 4-4 5-8 5-13z m0 146l0-36c0-5-1-10-5-13-4-4-8-6-13-6l-402 0c-5 0-9 2-13 6-4 3-5 8-5 13l0 36c0 5 1 10 5 13 4 4 8 6 13 6l402 0c5 0 9-2 13-6 4-3 5-8 5-13z m0 147l0-37c0-5-1-9-5-13-4-3-8-5-13-5l-402 0c-5 0-9 2-13 5-4 4-5 8-5 13l0 37c0 5 1 9 5 12 4 4 8 6 13 6l402 0c5 0 9-2 13-6 4-3 5-7 5-12z"/>
<glyph glyph-name="square-o" unicode="&#38;" d="M375 439l-238 0c-12 0-23-5-32-14-9-9-14-19-14-32l0-238c0-12 5-23 14-32 9-9 20-13 32-13l238 0c12 0 23 4 32 13 9 9 14 20 14 32l0 238c0 13-5 23-14 32-9 9-20 14-32 14z m82-46l0-238c0-22-8-42-24-58-16-16-35-24-58-24l-238 0c-23 0-42 8-58 24-16 16-24 36-24 58l0 238c0 23 8 42 24 58 16 16 35 24 58 24l238 0c23 0 42-8 58-24 16-16 24-35 24-58z"/>
<glyph glyph-name="check-square" unicode="&#39;" d="M232 141l176 175c3 4 5 8 5 13 0 5-2 9-5 13l-29 29c-4 4-8 6-13 6-5 0-10-2-13-6l-134-133-60 60c-3 4-8 5-13 5-5 0-9-1-13-5l-29-29c-3-4-5-8-5-13 0-5 2-9 5-13l103-102c3-4 7-6 12-6 5 0 10 2 13 6z m243 252l0-274c0-23-8-42-24-58-16-16-35-24-58-24l-274 0c-23 0-42 8-58 24-16 16-24 35-24 58l0 274c0 23 8 42 24 58 16 16 35 24 58 24l274 0c23 0 42-8 58-24 16-16 24-35 24-58z"/>
<glyph glyph-name="caret-down" unicode="&#40;" d="M402 311c0-5-2-9-5-13l-128-128c-4-4-8-5-13-5-5 0-9 1-13 5l-128 128c-3 4-5 8-5 13 0 5 2 9 5 13 4 3 8 5 13 5l256 0c5 0 9-2 13-5 3-4 5-8 5-13z"/>
<glyph glyph-name="caret-up" unicode="&#41;" d="M402 165c0-5-2-10-5-13-4-4-8-6-13-6l-256 0c-5 0-9 2-13 6-3 3-5 8-5 13 0 5 2 9 5 12l128 128c4 4 8 6 13 6 5 0 9-2 13-6l128-128c3-3 5-7 5-12z"/>
<glyph glyph-name="refresh" unicode="&#42;" d="M468 210c0-1 0-1 0-2-12-51-38-92-77-124-38-32-84-47-136-47-28 0-55 5-81 15-26 11-49 26-69 45l-37-37c-4-3-8-5-13-5-5 0-9 2-13 5-4 4-5 8-5 13l0 128c0 5 1 9 5 13 4 4 8 5 13 5l128 0c5 0 9-1 13-5 3-4 5-8 5-13 0-5-2-9-5-13l-39-39c13-12 28-22 46-29 17-7 35-10 53-10 26 0 49 6 71 18 23 13 40 30 54 51 2 4 7 15 15 34 1 4 4 6 8 6l55 0c3 0 5 0 7-2 1-2 2-4 2-7z m7 229l0-128c0-5-1-9-5-13-4-4-8-5-13-5l-128 0c-5 0-9 1-13 5-3 4-5 8-5 13 0 5 2 9 5 13l40 39c-28 26-62 39-100 39-26 0-49-6-71-18-23-13-40-30-54-51-2-4-7-15-15-34-1-4-4-6-8-6l-57 0c-3 0-5 0-7 2-1 2-2 4-2 7l0 2c12 51 38 92 77 124 39 32 85 47 137 47 28 0 55-5 81-15 26-11 50-26 70-45l37 37c4 3 8 5 13 5 5 0 9-2 13-5 4-4 5-8 5-13z"/>
<glyph glyph-name="close" unicode="&#43;" d="M444 125l-132 132 132 130c5 5 5 14 0 19l-37 38c-3 2-7 4-10 4-4 0-7-2-10-4l-131-130-131 130c-3 2-6 4-10 4-4 0-7-2-10-4l-37-38c-5-5-5-14 0-20l132-130-132-131c-2-3-4-6-4-10 0-4 2-7 4-10l38-37c3-3 6-4 10-4 3 0 7 1 9 4l131 131 131-131c2-3 6-4 10-4 3 0 7 1 9 4l38 37c2 3 4 6 4 10 0 4-2 7-4 10z"/>
<glyph glyph-name="filter" unicode="&#44;" d="M456 428c3-8 2-15-4-20l-141-141 0-212c0-8-4-14-11-17-3-1-5-1-7-1-6 0-10 1-13 5l-73 73c-4 4-6 8-6 13l0 139-141 141c-6 5-7 12-4 20 4 7 9 11 17 11l366 0c8 0 13-4 17-11z"/>
<glyph glyph-name="minus" unicode="&#45;" d="M457 302l0-55c0-8-3-14-8-20-5-5-12-8-19-8l-348 0c-7 0-14 3-19 8-5 6-8 12-8 20l0 55c0 7 3 14 8 19 5 5 12 8 19 8l348 0c7 0 14-3 19-8 5-5 8-12 8-19z"/>
<glyph glyph-name="plus" unicode="&#46;" d="M457 302l0-55c0-8-3-14-8-20-5-5-12-8-19-8l-119 0 0-118c0-8-3-15-8-20-5-5-12-8-20-8l-54 0c-8 0-15 3-20 8-5 5-8 12-8 20l0 118-119 0c-7 0-14 3-19 8-5 6-8 12-8 20l0 55c0 7 3 14 8 19 5 5 12 8 19 8l119 0 0 119c0 8 3 14 8 19 5 6 12 8 20 8l54 0c8 0 15-2 20-8 5-5 8-11 8-19l0-119 119 0c7 0 14-3 19-8 5-5 8-12 8-19z"/>
<glyph glyph-name="pencil-square-o" unicode="&#47;" d="M254 174l33 33-44 43-33-33 0-16 28 0 0-27z m125 205c-3 3-6 3-9 0l-100-100c-3-3-3-6 0-9 3-3 6-3 9 0l100 100c3 3 3 6 0 9z m23-169l0-55c0-22-8-42-24-58-16-16-35-24-58-24l-238 0c-22 0-42 8-58 24-16 16-24 36-24 58l0 238c0 23 8 42 24 58 16 16 36 24 58 24l238 0c12 0 23-2 33-7 3-1 5-3 6-6 0-4-1-6-3-9l-14-14c-3-2-6-3-9-2-5 1-9 2-13 2l-238 0c-12 0-23-5-32-14-9-9-13-19-13-32l0-238c0-12 4-23 13-32 9-9 20-13 32-13l238 0c13 0 23 4 32 13 9 9 14 20 14 32l0 36c0 3 1 5 2 7l19 18c2 3 6 4 10 2 3-2 5-4 5-8z m-27 211l82-83-192-192-82 0 0 83z m127-38l-27-26-82 82 26 26c6 5 12 8 20 8 7 0 14-3 19-8l44-43c5-6 8-12 8-20 0-7-3-14-8-19z"/>
<glyph glyph-name="play" unicode="&#58;" d="M450 247l-379-211c-5-2-8-2-11-1-4 2-5 6-5 11l0 420c0 5 1 9 5 11 3 1 6 1 11-1l379-211c5-3 7-6 7-9 0-3-2-6-7-9z"/>
<glyph glyph-name="stop" unicode="&#59;" d="M475 457l0-402c0-5-1-9-5-13-4-4-8-5-13-5l-402 0c-5 0-9 1-13 5-4 4-5 8-5 13l0 402c0 5 1 9 5 13 4 4 8 5 13 5l402 0c5 0 9-1 13-5 4-4 5-8 5-13z"/>
<glyph glyph-name="app-store" unicode="&#60;" d="M27 490l187 0 0-186-187 0z m207-205l-225 0 0 225 225 0z m-188 37l148 0 0 148-148 0z m232 188l225 0 0-225-225 0z m-269-283l225 0 0-225-225 0z m494-225l-225 0 0 225 225 0z m-187 38l148 0 0 148-148 0z"/>
<glyph glyph-name="arrow-up" unicode="&#61;" d="M479 235c0-10-4-19-11-26l-21-22c-8-7-16-10-26-10-11 0-19 3-26 10l-84 84 0-201c0-10-4-18-11-24-7-6-16-9-26-9l-36 0c-10 0-19 3-26 9-7 6-11 14-11 24l0 201-84-84c-7-7-15-10-26-10-10 0-18 3-25 10l-22 22c-7 7-11 16-11 26 0 10 4 18 11 26l186 186c7 7 16 10 26 10 10 0 19-3 26-10l186-186c7-8 11-17 11-26z"/>
<glyph glyph-name="arrow-right" unicode="&#62;" d="M457 238c0-11-3-19-10-26l-186-186c-8-7-17-11-26-11-10 0-19 4-26 11l-22 21c-7 7-10 16-10 26 0 10 3 19 10 26l84 84-201 0c-10 0-18 3-24 11-6 7-9 15-9 25l0 37c0 10 3 19 9 26 6 7 14 11 24 11l201 0-84 84c-7 6-10 15-10 25 0 11 3 19 10 26l22 21c7 8 16 11 26 11 10 0 18-3 26-11l186-186c7-6 10-15 10-25z"/>
<glyph glyph-name="arrow-left" unicode="&#63;" d="M475 256l0-37c0-10-3-18-9-25-6-8-14-11-24-11l-201 0 84-84c7-7 10-16 10-26 0-10-3-19-10-26l-22-21c-7-7-15-11-26-11-9 0-18 4-26 11l-186 186c-7 7-10 16-10 26 0 10 3 18 10 26l186 185c8 8 16 11 26 11 10 0 19-3 26-11l22-21c7-7 10-16 10-26 0-10-3-18-10-26l-84-83 201 0c10 0 18-4 24-11 6-7 9-16 9-26z"/>
<glyph glyph-name="check-circle" unicode="&#64;" d="M403 302c0 6-1 10-5 13l-26 26c-3 4-8 6-13 6-5 0-9-2-12-6l-117-116-65 64c-3 4-7 6-12 6-5 0-10-2-13-6l-26-25c-4-4-5-8-5-13 0-6 1-10 5-13l103-104c4-3 8-5 13-5 5 0 10 2 13 5l155 155c4 4 5 8 5 13z m72-46c0-40-9-77-29-110-20-34-46-60-80-80-33-20-70-29-110-29-40 0-77 9-110 29-34 20-60 46-80 80-20 33-29 70-29 110 0 40 9 77 29 110 20 34 46 60 80 80 33 20 70 29 110 29 40 0 77-9 110-29 34-20 60-46 80-80 20-33 29-70 29-110z"/>
<glyph glyph-name="search" unicode="&#91;" d="M347 274c0 36-12 66-37 91-25 25-55 37-91 37-35 0-65-12-90-37-25-25-38-55-38-91 0-35 13-65 38-90 25-25 55-38 90-38 36 0 66 13 91 38 25 25 37 55 37 90z m147-237c0-10-4-19-11-26-7-7-16-11-26-11-10 0-19 4-26 11l-98 98c-34-24-72-36-114-36-27 0-53 5-78 16-25 11-46 25-64 43-18 18-32 39-43 64-10 25-16 51-16 78 0 28 6 54 16 78 11 25 25 47 43 65 18 18 39 32 64 43 25 10 51 15 78 15 28 0 54-5 79-15 24-11 46-25 64-43 18-18 32-40 43-65 10-24 16-50 16-78 0-42-12-80-36-114l98-98c7-7 11-15 11-25z"/>
<glyph glyph-name="lock" unicode="&#93;" d="M371 318l-21 0 0 41c0 56-46 102-102 102-57 0-102-46-102-102l0-41-21 0c-22 0-41-19-41-41l0-205c0-22 19-41 41-41l246 0c22 0 41 19 41 41l0 205c0 22-19 41-41 41z m-184 0l0 41c0 34 27 61 61 61 34 0 61-27 61-61l0-41z"/>
<glyph glyph-name="long-arrow-down" unicode="&#94;" d="M365 141c1-4 1-7-2-10l-100-110c-1-2-4-3-6-3-3 0-5 1-7 3l-101 110c-3 3-3 6-2 10 2 3 5 5 8 5l64 0 0 357c0 3 1 5 3 6 2 2 4 3 7 3l54 0c3 0 5-1 7-3 2-1 3-3 3-6l0-357 64 0c4 0 6-2 8-5z"/>
<glyph glyph-name="long-arrow-up" unicode="&#95;" d="M365 371c-2-3-5-5-8-5l-64 0 0-357c0-3-1-5-3-6-2-2-4-3-7-3l-54 0c-3 0-5 1-7 3-2 1-3 3-3 6l0 357-64 0c-4 0-6 2-8 5-1 4-1 7 2 10l100 110c1 2 4 3 6 3 3 0 5-1 7-3l101-110c3-3 3-6 2-10z"/>
<glyph glyph-name="bassiball" unicode="&#96;" d="M329 83c-8 46-21 94-40 143l0 0-1-1c-3-1-7-2-12-4-5-2-15-7-29-14-14-8-27-15-39-24-12-8-25-19-38-32-13-14-22-28-29-43l-4 3c35-28 74-42 119-42 25 0 50 5 73 14z m-53 174c-4 9-9 20-15 32-59-18-123-27-192-27 0-1 0-3 0-6 0-24 4-46 12-68 9-21 20-40 36-57 9 17 21 33 35 47 14 15 27 27 41 36 13 9 25 17 37 23 12 7 21 11 28 14l11 4c1 0 2 0 4 1 1 0 3 0 3 1z m-30 60c-23 41-46 77-70 108-26-12-49-30-67-53-18-23-30-49-36-77 57 0 115 7 173 22z m195-91c-40 12-79 14-117 9 17-46 29-91 37-134 21 14 39 32 53 54 14 22 23 45 27 71z m-230 212c0 0 0 0 0 0 0 0 0 0 0 0z m169-41c-36 31-77 46-124 46-14 0-29-1-44-5 25-32 48-69 70-109 13 5 26 11 37 17 12 7 21 13 28 18 6 5 13 10 18 16 6 6 10 10 11 12z m63-139c0 44-14 83-42 117l0 0c-2-2-4-5-6-7-2-3-6-7-12-13-7-6-13-12-21-17-7-6-16-12-28-19-12-7-25-13-38-18 5-10 9-19 13-27 0-1 1-3 2-5 1-2 1-4 2-5 7 1 14 2 21 2 7 0 14 1 21 1 7 0 13-1 20-1 6 0 12-1 18-1 6 0 11-1 16-2 5 0 10-1 14-1 4-1 8-2 10-2 3-1 6-1 8-1z m32-2c0-40-9-77-29-110-20-34-46-60-80-80-33-20-70-29-110-29-40 0-77 9-110 29-34 20-60 46-80 80-20 33-29 70-29 110 0 40 9 77 29 110 20 34 46 60 80 80 33 20 70 29 110 29 40 0 77-9 110-29 34-20 60-46 80-80 20-33 29-70 29-110z"/>
<glyph glyph-name="caret-left" unicode="&#123;" d="M347 384l0-256c0-5-1-9-5-13-4-3-8-5-13-5-5 0-9 2-13 5l-128 128c-3 4-5 8-5 13 0 5 2 9 5 13l128 128c4 3 8 5 13 5 5 0 9-2 13-5 4-4 5-8 5-13z"/>
<glyph glyph-name="caret-right" unicode="&#124;" d="M329 256c0-5-2-9-5-13l-128-128c-4-3-8-5-13-5-5 0-9 2-13 5-4 4-5 8-5 13l0 256c0 5 1 9 5 13 4 3 8 5 13 5 5 0 9-2 13-5l128-128c3-4 5-8 5-13z"/>
<glyph glyph-name="leads" unicode="&#125;" d="M256 345c-49 0-89-40-89-89 0-49 40-89 89-89 49 0 89 40 89 89 0 49-40 89-89 89z m199-67c-11 93-84 166-177 177l0 23c0 12-10 22-22 22-12 0-22-10-22-22l0-23c-93-11-166-84-177-177l-23 0c-12 0-22-10-22-22 0-12 10-22 22-22l23 0c11-93 84-166 177-177l0-23c0-12 10-22 22-22 12 0 22 10 22 22l0 23c93 11 166 84 177 177l23 0c12 0 22 10 22 22 0 12-10 22-22 22z m-199-178c-86 0-156 70-156 156 0 86 70 156 156 156 86 0 156-70 156-156 0-86-70-156-156-156z"/>
<glyph glyph-name="circle" unicode="&#126;" d="M475 256c0-40-9-77-29-110-20-34-46-60-80-80-33-20-70-29-110-29-40 0-77 9-110 29-34 20-60 46-80 80-20 33-29 70-29 110 0 40 9 77 29 110 20 34 46 60 80 80 33 20 70 29 110 29 40 0 77-9 110-29 34-20 60-46 80-80 20-33 29-70 29-110z"/>
<glyph glyph-name="company-icon" unicode="&#92;" d="M398 284l0 171c0 31-25 57-57 57l-170 0c-32 0-57-26-57-57l0-57-57 0c-31 0-57-25-57-57l0-284c0-31 26-57 57-57l142 0c16 0 29 13 29 28l0 86 56 0 0-86c0-15 13-28 29-28l142 0c31 0 57 26 57 57l0 171c0 31-26 56-57 56z m-284-227l-57 0 0 57 57 0z m0 114l-57 0 0 57 57 0z m0 113l-57 0 0 57 57 0z m114-113l-57 0 0 57 57 0z m0 113l-57 0 0 57 57 0z m0 114l-57 0 0 57 57 0z m113-227l-57 0 0 57 57 0z m0 113l-57 0 0 57 57 0z m0 114l-57 0 0 57 57 0z m114-341l-57 0 0 57 57 0z m0 114l-57 0 0 57 57 0z"/>
<glyph glyph-name="map-marker" unicode="&#57344;" d="M329 329c0 20-7 38-21 52-15 14-32 21-52 21-20 0-37-7-52-21-14-14-21-32-21-52 0-20 7-37 21-52 15-14 32-21 52-21 20 0 37 7 52 21 14 15 21 32 21 52z m73 0c0-21-3-38-9-51l-104-221c-3-6-8-11-14-15-6-4-12-5-19-5-7 0-13 1-19 5-6 4-11 9-14 15l-104 221c-6 13-9 30-9 51 0 41 14 75 43 104 28 28 63 42 103 42 40 0 75-14 103-42 29-29 43-63 43-104z"/>
<glyph glyph-name="load-c" unicode="&#57345;" d="M480 286c-2 9-3 17-5 26-3 10-7 21-11 31-9 22-21 41-36 59-16 19-35 35-57 48-21 12-44 21-68 26-12 2-25 4-38 4-9 0-19 0-29-1-26-3-51-10-74-21-20-9-38-21-55-36-16-15-31-32-42-50-13-21-22-44-27-68-5-19-7-38-6-58 1-19 4-37 10-56 3-11 8-22 13-33 5-11 12-21 19-31 13-19 30-36 49-50 20-15 42-26 65-33 24-8 50-12 76-11 24 1 49 6 72 15 22 8 43 21 62 36 9 8 17 17 25 26 8 9 15 19 20 30 5 9 10 19 13 28 2 5 4 10 5 15 2 5 3 11 4 16 1 9 2 17 1 26-1-4-1-7-2-11-1-4-3-9-4-13-4-8-8-17-11-25-5-11-11-21-17-31-3-5-7-10-10-15-4-5-8-9-12-14-8-9-17-17-27-24-10-8-21-14-32-20-23-11-47-17-72-19-26-3-52 0-77 7-23 7-45 18-65 33-19 14-35 32-48 52-14 20-23 43-28 67-1 6-2 13-3 19-1 5-1 11-1 16-1 12 0 23 2 34 4 25 12 49 24 70 11 20 25 37 42 52 17 15 36 26 57 35 12 5 24 8 37 11 7 1 13 2 20 2 3 1 6 1 9 1 2 0 3 0 4 0 22 0 44-2 64-9 23-7 44-18 62-33 19-15 35-34 47-56 10-18 17-38 22-58 1-5 2-9 2-14 1-4 3-8 7-11 8-5 19-1 23 7 1 3 1 6 1 9z"/>
<glyph glyph-name="chain-broken" unicode="&#57346;" d="M144 149l-73-73c-2-2-5-3-7-3-2 0-4 1-7 3-1 2-2 4-2 6 0 3 1 5 2 7l74 73c1 2 4 3 6 3 3 0 5-1 7-3 1-2 2-4 2-7 0-2-1-4-2-6z m48-12l0-91c0-3-1-5-3-7-1-2-3-2-6-2-3 0-5 0-7 2-1 2-2 4-2 7l0 91c0 3 1 5 2 7 2 1 4 2 7 2 3 0 5-1 6-2 2-2 3-4 3-7z m-64 64c0-3-1-5-3-6-1-2-3-3-6-3l-92 0c-2 0-4 1-6 3-2 1-3 3-3 6 0 3 1 5 3 7 2 1 4 2 6 2l92 0c3 0 5-1 6-2 2-2 3-4 3-7z m361-36c0-23-8-43-24-58l-42-42c-16-16-35-24-58-24-23 0-43 8-58 24l-96 96c-4 4-8 9-12 16l68 5 78-78c6-5 12-8 20-8 8 0 14 3 19 8l42 41c6 6 8 12 8 20 0 7-2 14-8 19l-78 79 5 68c7-4 12-8 16-12l96-96c16-17 24-36 24-58z m-176 206l-68-5-78 79c-6 5-12 8-20 8-7 0-14-3-19-8l-42-42c-6-5-8-12-8-19 0-8 2-14 8-19l78-79-5-68c-7 4-12 8-16 12l-96 96c-16 16-24 36-24 58 0 23 8 42 24 58l42 42c16 16 35 23 58 23 23 0 43-8 58-24l96-96c4-4 8-9 12-16z m181-24c0-2-1-4-3-6-2-2-4-3-6-3l-92 0c-3 0-5 1-6 3-2 2-3 4-3 6 0 3 1 5 3 7 1 2 3 3 6 3l92 0c2 0 4-1 6-3 2-2 3-4 3-7z m-156 156l0-92c0-2-1-4-2-6-2-2-4-3-7-3-3 0-5 1-6 3-2 2-3 4-3 6l0 92c0 3 1 5 3 6 1 2 3 3 6 3 3 0 5-1 7-3 1-1 2-3 2-6z m117-43l-74-73c-2-2-4-3-6-3-2 0-5 1-7 3-1 1-2 4-2 6 0 3 1 5 2 7l73 73c2 2 5 2 7 2 2 0 5 0 7-2 1-2 2-4 2-7 0-2-1-4-2-6z"/>
<glyph glyph-name="close-circled" unicode="&#57347;" d="M256 479c-124 0-224-100-224-224 0-124 100-224 224-224 124 0 224 100 224 224 0 124-100 224-224 224z m108-300c2-1 3-3 3-5 0-2-1-4-3-6l-21-21c-2-2-4-3-6-3-2 0-4 1-5 3l-76 75-75-76c-2-1-4-2-6-2-2 0-4 1-6 2l-21 22c-2 2-2 4-2 6 0 2 0 4 2 5l76 76-76 75c-3 3-3 9 0 12l21 21c2 2 4 3 6 3 2 0 4-1 5-3l76-74 76 74c1 2 3 3 5 3 3 0 5-1 6-3l22-21c3-3 3-9 0-12l-76-75z"/>
<glyph glyph-name="paper-plane-o" unicode="&#57348;" d="M504 509c6-5 9-11 8-18l-73-439c-1-6-4-10-10-13-2-2-5-2-8-2-3 0-5 0-7 1l-151 61-85-93c-3-4-8-6-13-6-3 0-5 0-7 1-4 1-6 4-9 7-2 3-3 6-3 10l0 129-135 56c-7 2-10 7-11 15-1 8 2 13 9 17l476 274c6 4 13 4 19 0z m-98-428l63 378-409-237 96-39 246 183-136-228z"/>
<glyph glyph-name="wrench" unicode="&#57349;" d="M128 91c0 5-2 10-5 13-4 4-8 6-13 6-5 0-10-2-13-6-4-3-6-8-6-13 0-5 2-9 6-12 3-4 8-6 13-6 5 0 9 2 13 6 3 3 5 7 5 12z m184 120l-195-194c-7-7-15-11-26-11-9 0-18 4-26 11l-30 30c-7 7-11 16-11 26 0 10 4 19 11 26l195 195c7-19 18-35 32-50 15-14 31-25 50-33z m181 125c0-8-2-18-6-31-9-25-25-46-47-62-23-16-47-24-74-24-36 0-66 13-91 38-25 25-37 55-37 90 0 36 12 66 37 91 25 25 55 37 91 37 11 0 22-1 34-4 13-3 23-8 31-14 3-2 5-4 5-8 0-3-2-5-5-8l-84-48 0-64 56-30c1 0 8 5 22 13 14 9 27 17 39 24 12 6 18 10 20 10 3 0 5-1 7-3 1-2 2-4 2-7z"/>
<glyph glyph-name="clock-o" unicode="&#57350;" d="M293 357l0-128c0-3-1-5-3-7-2-2-4-3-7-3l-91 0c-3 0-5 1-7 3-1 2-2 4-2 7l0 18c0 3 1 5 2 6 2 2 4 3 7 3l64 0 0 101c0 2 1 4 3 6 1 2 3 3 6 3l18 0c3 0 5-1 7-3 2-2 3-4 3-6z m118-101c0 28-7 54-20 78-14 24-33 43-57 57-24 13-50 20-78 20-28 0-54-7-78-20-24-14-43-33-57-57-13-24-20-50-20-78 0-28 7-54 20-78 14-24 33-43 57-57 24-13 50-20 78-20 28 0 54 7 78 20 24 14 43 33 57 57 13 24 20 50 20 78z m64 0c0-40-9-77-29-110-20-34-46-60-80-80-33-20-70-29-110-29-40 0-77 9-110 29-34 20-60 46-80 80-20 33-29 70-29 110 0 40 9 77 29 110 20 34 46 60 80 80 33 20 70 29 110 29 40 0 77-9 110-29 34-20 60-46 80-80 20-33 29-70 29-110z"/>
<glyph glyph-name="paper-plane" unicode="&#57351;" d="M504 509c6-5 9-11 8-18l-73-439c-1-6-4-10-10-13-2-2-5-2-8-2-3 0-5 0-7 1l-130 53-69-84c-3-5-8-7-14-7-2 0-4 0-6 1-4 1-7 4-9 7-2 3-3 6-3 10l0 100 247 303-306-265-113 47c-7 2-10 7-11 15 0 8 3 14 9 17l476 274c2 2 5 3 9 3 4 0 7-1 10-3z"/>
<glyph glyph-name="plus-square" unicode="&#57352;" d="M402 238l0 36c0 5-2 10-5 13-4 4-8 6-13 6l-91 0 0 91c0 5-2 9-6 13-3 3-8 5-13 5l-36 0c-5 0-10-2-13-5-4-4-6-8-6-13l0-91-91 0c-5 0-9-2-13-6-3-3-5-8-5-13l0-36c0-5 2-10 5-13 4-4 8-6 13-6l91 0 0-91c0-5 2-9 6-13 3-3 8-5 13-5l36 0c5 0 10 2 13 5 4 4 6 8 6 13l0 91 91 0c5 0 9 2 13 6 3 3 5 8 5 13z m73 155l0-274c0-23-8-42-24-58-16-16-35-24-58-24l-274 0c-23 0-42 8-58 24-16 16-24 35-24 58l0 274c0 23 8 42 24 58 16 16 35 24 58 24l274 0c23 0 42-8 58-24 16-16 24-35 24-58z"/>
<glyph glyph-name="plus-square-o" unicode="&#57353;" d="M384 283l0-18c0-3-1-5-3-6-1-2-3-3-6-3l-101 0 0-101c0-2-1-4-2-6-2-2-4-3-7-3l-18 0c-3 0-5 1-7 3-1 2-2 4-2 6l0 101-101 0c-3 0-5 1-6 3-2 1-3 3-3 6l0 18c0 3 1 5 3 7 1 2 3 3 6 3l101 0 0 100c0 3 1 5 2 7 2 1 4 2 7 2l18 0c3 0 5-1 7-2 1-2 2-4 2-7l0-100 101 0c3 0 5-1 6-3 2-2 3-4 3-7z m37-128l0 238c0 13-5 23-14 32-9 9-20 14-32 14l-238 0c-12 0-23-5-32-14-9-9-14-19-14-32l0-238c0-12 5-23 14-32 9-9 20-13 32-13l238 0c12 0 23 4 32 13 9 9 14 20 14 32z m36 238l0-238c0-22-8-42-24-58-16-16-35-24-58-24l-238 0c-23 0-42 8-58 24-16 16-24 36-24 58l0 238c0 23 8 42 24 58 16 16 35 24 58 24l238 0c23 0 42-8 58-24 16-16 24-35 24-58z"/>
<glyph glyph-name="minus-square" unicode="&#57354;" d="M402 238l0 36c0 5-2 10-5 13-4 4-8 6-13 6l-256 0c-5 0-9-2-13-6-3-3-5-8-5-13l0-36c0-5 2-10 5-13 4-4 8-6 13-6l256 0c5 0 9 2 13 6 3 3 5 8 5 13z m73 155l0-274c0-23-8-42-24-58-16-16-35-24-58-24l-274 0c-23 0-42 8-58 24-16 16-24 35-24 58l0 274c0 23 8 42 24 58 16 16 35 24 58 24l274 0c23 0 42-8 58-24 16-16 24-35 24-58z"/>
<glyph glyph-name="minus-square-o" unicode="&#57355;" d="M384 283l0-18c0-3-1-5-3-6-1-2-3-3-6-3l-238 0c-3 0-5 1-6 3-2 1-3 3-3 6l0 18c0 3 1 5 3 7 1 2 3 3 6 3l238 0c3 0 5-1 6-3 2-2 3-4 3-7z m37-128l0 238c0 13-5 23-14 32-9 9-20 14-32 14l-238 0c-12 0-23-5-32-14-9-9-14-19-14-32l0-238c0-12 5-23 14-32 9-9 20-13 32-13l238 0c12 0 23 4 32 13 9 9 14 20 14 32z m36 238l0-238c0-22-8-42-24-58-16-16-35-24-58-24l-238 0c-23 0-42 8-58 24-16 16-24 36-24 58l0 238c0 23 8 42 24 58 16 16 35 24 58 24l238 0c23 0 42-8 58-24 16-16 24-35 24-58z"/>
<glyph glyph-name="th-large" unicode="&#57356;" d="M238 219l0-109c0-10-4-19-11-26-7-7-16-11-26-11l-146 0c-10 0-19 4-26 11-7 7-11 16-11 26l0 109c0 10 4 19 11 26 7 7 16 11 26 11l146 0c10 0 19-4 26-11 7-7 11-16 11-26z m0 220l0-110c0-10-4-18-11-26-7-7-16-10-26-10l-146 0c-10 0-19 3-26 10-7 8-11 16-11 26l0 110c0 10 4 18 11 26 7 7 16 10 26 10l146 0c10 0 19-3 26-10 7-8 11-16 11-26z m256-220l0-109c0-10-4-19-11-26-7-7-16-11-26-11l-146 0c-10 0-19 4-26 11-7 7-11 16-11 26l0 109c0 10 4 19 11 26 7 7 16 11 26 11l146 0c10 0 19-4 26-11 7-7 11-16 11-26z m0 220l0-110c0-10-4-18-11-26-7-7-16-10-26-10l-146 0c-10 0-19 3-26 10-7 8-11 16-11 26l0 110c0 10 4 18 11 26 7 7 16 10 26 10l146 0c10 0 19-3 26-10 7-8 11-16 11-26z"/>
<glyph glyph-name="location-arrow" unicode="&#57357;" d="M455 412l-183-365c-3-7-8-10-16-10-1 0-2 0-4 0-4 1-8 3-10 7-3 3-4 7-4 11l0 164-165 0c-4 0-8 2-11 4-3 3-6 6-7 10-1 5 0 9 2 12 1 4 4 7 8 9l366 183c2 1 5 2 8 2 5 0 9-2 13-6 3-2 4-6 5-9 1-4 0-8-2-12z"/>
<glyph glyph-name="user-tag-solid2" unicode="&#57358;" d="M504 169l-72 72c-9 10-22 15-36 15l-63 0c-15 0-26-11-26-26l0-63c0-13 5-26 15-36l72-72c10-10 26-10 36 0l74 74c10 10 10 26 0 36z m-146 17c-10 0-19 8-19 19 0 11 9 19 19 19 11 0 19-8 19-19 0-11-8-19-19-19z m-179 70c57 0 103 46 103 103 0 56-46 102-103 102-56 0-102-46-102-103 0-56 46-102 102-102z m102-89l0 59c-9 3-19 5-30 5l-13 0c-18-9-38-13-59-13-21 0-40 4-58 13l-13 0c-60 0-108-49-108-108l0-33c0-21 17-39 38-39l282 0c12 0 23 6 30 15l-46 47c-15 14-23 34-23 54z"/>
<glyph glyph-name="check" unicode="&#57359;" d="M477 350c0-7-2-14-8-19l-206-207-39-39c-6-5-12-8-20-8-7 0-14 3-19 8l-142 142c-6 6-8 12-8 20 0 7 2 14 8 19l38 39c6 5 12 8 20 8 7 0 14-3 19-8l84-84 188 188c5 5 12 8 19 8 8 0 14-3 20-8l38-39c6-6 8-12 8-20z"/>
<glyph glyph-name="arrow-left-c" unicode="&#57360;" d="M189 384l-100-105c-6-6-9-14-9-23 0-9 3-16 9-22l100-106c12-12 32-12 44 0 11 13 11 33 0 46l-49 50 217 0c17 0 31 14 31 32 0 18-14 32-31 32l-217 0 49 50c12 13 12 33 0 46-12 12-32 12-44 0z"/>
<glyph glyph-name="arrow-right-c" unicode="&#57361;" d="M323 384l100-105c6-6 9-14 9-23 0-9-3-16-9-22l-100-106c-12-12-32-12-43 0-12 13-12 33 0 46l48 50-217 0c-17 0-31 14-31 32 0 18 14 32 31 32l217 0-49 50c-11 13-11 33 0 46 12 12 32 12 44 0z"/>
<glyph glyph-name="envelope-plus" unicode="&#57362;" d="M269 137l0 28c0 1 1 2 2 2l54 0 0 53c0 1 1 2 2 2l28 0c1 0 2-1 2-2l0-53 53 0c1 0 2-1 2-2l0-28c0-1-1-2-2-2l-53 0 0-54c0-1-1-2-2-2l-28 0c-1 0-2 1-2 2l0 54-54 0c-1 0-2 1-2 2z m153 330c0-2 0-4 0-6 0-59 0-119 0-178 0-4 1-6 4-8 44-30 66-71 67-124 1-69-51-132-119-146-66-13-131 17-162 75-25 47-25 94-1 141 1 2 2 3 3 5 0 0 0 1 0 2-2 0-3 0-5 0-51 0-102 0-152 0-19 0-32 9-36 26-1 3-2 6-2 10 0 67 0 134 0 200 0 1 0 2 0 3 2-1 3-1 4-2 65-50 129-100 194-151 3-2 4-2 8 0 64 50 129 100 194 151 1 0 2 1 3 2z m-196-315c0-66 53-119 117-118 65 0 118 53 118 117 0 65-53 118-118 118-65 0-118-53-117-117z m-197 349c7 7 14 10 24 11 1 0 2 0 4 0 109 0 219 0 328 0 11 0 20-3 28-11-64-50-128-99-192-149-64 49-128 99-192 149z m241-366c0 11 0 21 0 32 18 0 36 0 55 0 0 19 0 37 0 56 11 0 21 0 32 0 0-19 0-37 0-56 19 0 37 0 56 0 0-10 0-21 0-32-19 0-37 0-56 0 0-18 0-37 0-55-10 0-21 0-32 0 0 18 0 36 0 55-18 0-37 0-55 0z"/>
<glyph glyph-name="envelope-check" unicode="&#57363;" d="M259 139c6 6 12 12 19 19 1 1 2 1 3 0 11-11 21-22 32-34 1-1 3-1 3 0 24 30 47 58 70 87 1 1 2 1 3 0 7-6 14-12 22-18 1 0 1-2 0-3-30-37-61-75-92-113 0-1-2-1-3 0-19 20-38 40-57 60 0 0 0 2 0 2z m-44 89c-2 0-4 0-5 0-51 0-102 0-153 0-18 0-31 10-36 26-1 4-1 7-1 10 0 67 0 134 0 201 0 0 0 1 0 3 1-1 2-2 3-2 65-51 130-101 195-151 3-2 4-3 7 0 65 50 129 100 194 150 1 1 2 2 4 3 0-2 0-4 0-5 0-60 0-119 0-179 0-4 1-6 5-9 44-31 66-74 65-128-1-71-55-131-125-143-87-14-160 47-172 124-5 34 0 65 16 95 1 1 2 3 3 5z m11-76c1-66 53-118 118-118 65 1 118 54 118 118-1 66-54 118-119 118-65-1-117-54-117-118z m188 349c-65-50-128-99-192-149-64 50-128 99-192 149 4 5 9 8 14 10 4 1 8 2 12 2 110 0 221 0 332 0 10 0 18-4 26-12z m-155-361c6 6 14 13 22 21 11-12 23-24 35-37 25 31 48 60 73 90 8-7 16-13 24-20-31-39-62-77-94-116-20 20-40 41-60 62z"/>
<glyph glyph-name="facebook" unicode="&#57364;" d="M384 509l0-76-45 0c-17 0-28-3-33-10-6-7-9-17-9-31l0-54 84 0-11-85-73 0 0-216-87 0 0 216-73 0 0 85 73 0 0 62c0 36 10 63 29 83 20 19 47 29 80 29 28 0 49-1 65-3z"/>
<glyph glyph-name="linkedin" unicode="&#57365;" d="M136 333l0-283-94 0 0 283z m6 88c0-14-4-26-14-35-10-9-23-14-39-14l0 0c-16 0-29 5-38 14-10 9-14 21-14 35 0 14 4 26 14 35 10 9 23 14 39 14 16 0 28-5 38-14 9-9 14-21 14-35z m333-208l0-163-94 0 0 152c0 20-3 35-11 47-8 11-20 17-36 17-12 0-22-4-30-10-9-7-15-15-19-25-2-5-3-13-3-23l0-158-94 0c1 76 1 138 1 185 0 47 0 76 0 85l-1 13 94 0 0-41 0 0c4 6 7 12 11 16 4 5 10 10 17 15 6 5 15 10 24 13 10 3 21 4 33 4 33 0 59-11 79-32 20-22 29-54 29-95z"/>
<glyph glyph-name="twitter" unicode="&#57366;" d="M481 395c-13-18-28-34-46-47 0-3 0-7 0-12 0-25-3-50-11-74-7-25-18-49-33-71-14-23-32-43-52-61-21-17-45-31-74-41-29-11-60-16-92-16-52 0-99 14-142 42 7-1 14-2 22-2 43 0 81 14 115 40-20 0-38 6-54 18-16 12-27 27-33 46 7-1 13-2 18-2 8 0 16 1 24 4-21 4-39 15-53 31-14 17-21 37-21 59l0 1c13-7 27-11 42-11-13 8-23 19-30 32-8 14-11 29-11 44 0 17 4 33 12 47 23-28 51-51 84-68 33-17 69-27 107-29-2 8-3 15-3 22 0 25 9 47 27 65 18 18 40 27 66 27 26 0 49-10 67-29 21 4 40 11 59 22-7-22-21-39-41-51 18 2 35 7 53 14z"/>
<glyph glyph-name="instagram" unicode="&#57367;" d="M426 105l0 185-39 0c4-12 6-25 6-38 0-24-6-46-18-66-13-20-29-36-50-48-21-12-44-18-69-18-37 0-69 13-96 39-27 26-40 57-40 93 0 13 2 26 6 38l-41 0 0-185c0-5 2-10 5-13 4-3 8-5 13-5l305 0c5 0 9 2 13 5 3 3 5 8 5 13z m-81 152c0 23-9 44-26 60-18 17-38 25-63 25-24 0-45-8-62-25-17-16-26-37-26-60 0-24 9-44 26-61 17-16 38-25 62-25 25 0 45 9 63 25 17 17 26 37 26 61z m81 103l0 47c0 5-2 10-6 14-4 4-8 6-14 6l-50 0c-5 0-10-2-14-6-4-4-5-9-5-14l0-47c0-6 1-10 5-14 4-4 9-6 14-6l50 0c6 0 10 2 14 6 4 4 6 8 6 14z m49 59l0-326c0-16-5-29-16-40-11-11-24-16-40-16l-326 0c-16 0-29 5-40 16-11 11-16 24-16 40l0 326c0 16 5 29 16 40 11 11 24 16 40 16l326 0c16 0 29-5 40-16 11-11 16-24 16-40z"/>
<glyph glyph-name="pinterest-p" unicode="&#57368;" d="M73 341c0 21 4 40 11 59 7 18 17 34 29 47 13 14 27 25 44 35 16 10 34 18 53 23 19 5 38 7 57 7 31 0 59-6 84-19 26-13 47-31 64-55 16-24 24-52 24-82 0-19-2-36-6-54-3-18-9-34-17-51-8-16-17-30-28-42-12-13-25-22-42-30-16-7-34-11-54-11-13 0-26 3-38 9-13 7-22 15-28 26-2-8-4-19-8-33-3-14-5-23-6-27-1-4-3-11-6-20-3-9-6-16-8-20-2-4-5-10-9-18-4-8-8-15-13-22-5-7-11-15-18-25l-4-1-2 2c-3 30-5 48-5 54 0 18 2 37 7 59 4 22 10 49 19 82 8 33 13 53 14 58-6 13-9 29-9 49 0 15 5 30 15 44 10 14 23 21 38 21 11 0 21-4 27-12 6-7 10-17 10-29 0-12-4-31-13-54-8-24-12-42-12-54 0-12 4-22 12-30 9-8 19-12 32-12 10 0 20 3 29 8 9 4 16 11 22 19 6 8 11 17 16 27 5 10 8 21 11 32 3 11 4 21 6 31 1 10 2 20 2 29 0 33-11 58-32 77-21 18-48 27-81 27-38 0-70-12-96-37-25-24-38-56-38-93 0-9 1-17 4-25 2-8 5-14 7-18 3-5 6-9 8-13 2-4 4-7 4-9 0-5-2-12-5-21-3-8-6-13-10-13-1 0-2 1-5 1-10 3-18 8-26 16-8 8-13 17-17 27-5 10-8 21-10 31-2 10-3 21-3 30z"/>
<glyph glyph-name="google-plus" unicode="&#57369;" d="M228 285c0-7 3-14 9-21 7-6 14-13 23-19 8-6 17-13 25-21 9-8 16-18 22-30 7-12 10-25 10-40 0-17-5-34-14-50-14-23-34-40-60-51-27-11-55-16-86-16-25 0-48 4-70 11-22 8-38 21-49 40-7 11-11 24-11 37 0 16 5 30 13 43 9 13 20 24 34 33 25 15 63 25 115 28-6 8-10 15-13 22-3 6-5 13-5 20 0 7 2 15 6 25-8-1-15-1-19-1-28 0-52 9-71 27-20 19-29 42-29 70 0 16 3 31 10 45 7 15 16 28 28 38 15 12 32 22 52 28 21 6 41 9 63 9l119 0-39-25-38 0c14-12 25-25 32-38 7-13 11-29 11-46 0-14-2-26-7-37-5-11-10-20-17-26-6-7-13-13-20-19-6-6-12-11-17-18-4-6-7-12-7-18z m-41 27c7 0 14 2 22 5 7 3 14 7 19 12 10 11 15 26 15 46 0 11-2 23-5 35-3 13-8 25-14 37-6 12-14 22-24 30-10 8-21 12-33 12-8 0-16-2-24-6-8-4-14-9-19-15-9-11-13-26-13-46 0-8 1-18 3-28 2-9 5-19 9-29 4-10 9-19 15-26 5-8 13-15 21-20 8-5 18-7 28-7z m0-249c11 0 22 1 32 3 10 3 20 6 28 11 9 5 16 12 21 21 5 9 8 20 8 31 0 5-1 10-2 14-1 5-3 9-4 12-2 4-4 8-8 12-4 5-6 8-8 10-2 2-6 6-11 10-6 5-9 7-11 8-1 2-5 4-12 9-6 5-9 7-10 7-3 1-8 1-14 1-10 0-20-1-30-2-10-1-20-4-30-7-11-4-20-8-28-13-8-6-15-13-20-22-5-8-7-18-7-30 0-13 3-25 10-35 6-10 15-18 26-24 10-5 22-10 34-12 12-3 24-4 36-4z m232 250l60 0 0-31-60 0 0-63-30 0 0 63-61 0 0 31 61 0 0 62 30 0z"/>
<glyph glyph-name="wordpress" unicode="&#57370;" d="M36 256c0 31 7 61 19 89l105-287c-37 18-67 45-90 81-22 35-34 74-34 117z m368 11c0-3 0-7 0-11-1-4-2-8-3-14-2-6-3-10-4-13 0-2-2-8-5-16-2-9-4-15-5-17l-21-73-80 236c9 0 17 1 25 2 4 1 7 2 8 5 1 4 1 7-1 9-2 3-4 4-8 4l-59-3c-14 0-33 1-57 3-3 0-5 0-6-1-2-1-3-3-3-5-1-1-1-3-1-5 0-2 1-3 3-5 1-1 3-2 5-2l23-2 34-94-48-144-80 238c9 0 18 1 26 2 3 1 6 2 7 5 1 4 1 7-1 9-2 3-4 4-8 4l-58-3c-2 0-4 0-7 0-3 1-6 1-7 1 20 30 46 54 78 72 32 18 67 27 105 27 28 0 55-5 80-15 26-11 48-25 68-43l-3 0c-10 0-19-4-26-12-7-7-10-16-10-27 0-2 0-4 0-7 1-2 1-4 1-6 1-2 1-4 3-6 1-3 2-5 2-6 1-2 2-4 4-7 1-3 2-5 3-6 1-1 2-3 4-7 2-3 4-5 4-6 12-21 18-41 18-61z m-144-30l67-185c1-1 1-2 2-3-24-9-48-13-73-13-21 0-42 3-62 9z m189 124c18-33 27-68 27-105 0-40-10-77-30-110-20-34-46-60-80-80l67 194c12 32 17 58 17 79 0 8 0 15-1 22z m-193 151c35 0 68-7 99-20 32-14 59-32 82-55 23-23 41-50 55-82 13-31 20-64 20-99 0-35-7-68-20-99-14-32-32-59-55-82-23-23-50-41-82-55-31-13-64-20-99-20-35 0-68 7-99 20-32 14-59 32-82 55-23 23-41 50-55 82-13 31-20 64-20 99 0 35 7 68 20 99 14 32 32 59 55 82 23 23 50 41 82 55 31 13 64 20 99 20z m0-500c33 0 65 6 95 19 30 13 56 30 78 52 22 22 39 48 52 78 13 30 19 62 19 95 0 33-6 65-19 95-13 30-30 56-52 78-22 22-48 39-78 52-30 13-62 19-95 19-33 0-65-6-95-19-30-13-56-30-78-52-22-22-39-48-52-78-13-30-19-62-19-95 0-33 6-65 19-95 13-30 30-56 52-78 22-22 48-39 78-52 30-13 62-19 95-19z"/>
<glyph glyph-name="youtube-play" unicode="&#57371;" d="M366 256c0 7-3 12-9 15l-146 92c-6 4-12 4-19 0-6-3-9-8-9-16l0-182c0-8 3-13 9-16 3-2 6-3 9-3 4 0 7 1 10 3l146 92c6 3 9 8 9 15z m146 0c0-18 0-33 0-43 0-10-1-23-3-39-1-16-3-30-6-42-3-14-10-26-20-35-10-10-22-15-35-17-43-4-106-7-192-7-86 0-149 3-192 7-13 2-25 7-35 17-10 9-17 21-20 35-3 12-5 26-6 42-2 16-3 29-3 39 0 10 0 25 0 43 0 18 0 33 0 43 0 10 1 23 3 39 1 16 3 30 6 42 3 14 10 26 20 35 10 10 22 15 35 17 43 4 106 7 192 7 86 0 149-3 192-7 13-2 25-7 35-17 10-9 17-21 20-35 3-12 5-26 6-42 2-16 3-29 3-39 0-10 0-25 0-43z"/>
<glyph glyph-name="vimeo" unicode="&#57372;" d="M488 364c-2-45-33-107-95-186-63-82-117-123-160-123-27 0-50 25-69 75-8 30-21 76-37 138-14 50-29 75-45 75-4 0-16-8-37-22l-22 28c5 4 15 13 31 27 16 15 29 26 37 33 30 27 53 41 69 42 18 2 33-3 44-16 11-12 19-31 23-58 9-55 15-90 19-106 10-48 22-72 34-72 10 0 25 16 44 46 20 31 30 55 31 71 3 26-7 39-31 39-11 0-22-2-34-7 23 75 66 111 131 109 48-1 70-32 67-93z"/>
<glyph glyph-name="soundcloud" unicode="&#57373;" d="M151 120l4 69-4 149c0 2-1 4-2 5-2 1-3 2-5 2-2 0-3-1-5-2-1-1-2-3-2-5l-4-149 4-69c1-2 1-3 3-5 1-1 2-2 4-2 4 0 6 3 7 7z m84 8l4 61-4 167c0 3-1 5-4 7-1 1-3 1-4 1-2 0-3 0-5-1-2-2-3-4-3-7l-1-2-3-165c0 0 1-23 4-68l0 0c0-2 0-3 1-5 2-2 4-3 7-3 2 0 4 1 6 3 1 1 2 3 2 5z m-298 97l6-36-6-36c-1-2-1-3-3-3-1 0-2 1-2 3l-5 36 5 36c0 2 1 3 2 3 2 0 2-1 3-3z m24 23l8-59-8-58c0-2-1-3-2-3-2 0-3 1-3 3l-7 58 7 59c0 2 1 3 3 3 1 0 2-1 2-3z m80-129z m-53 140l7-70-7-68c0-2-1-3-3-3-2 0-3 1-4 3l-6 68 6 70c1 2 2 3 4 3 2 0 3-1 3-3z m27 2l6-72-6-70c-1-2-2-4-4-4-3 0-4 2-4 4l-6 70 6 72c0 2 1 4 4 4 2 0 3-2 4-4z m26-5l6-67-6-70c0-3-1-5-4-5-1 0-2 0-3 1-1 1-1 2-1 4l-6 70 6 67c0 1 0 2 1 3 1 1 2 1 3 1 3 0 4-1 4-4z m110-136z m-83 177l6-108-6-70c0-2 0-3-1-4-1-1-2-2-4-2-3 0-4 2-5 6l-5 70 5 108c1 4 2 6 5 6 2 0 3-1 4-2 1-1 1-2 1-4z m27 25l6-134-6-69c0-2 0-3-1-4-1-1-3-2-4-2-4 0-6 2-6 6l-5 69 5 134c0 4 2 5 6 5 1 0 3 0 4-1 1-1 1-2 1-4z m28 11l5-144-5-69c0-4-2-6-6-6-4 0-6 2-6 6l-5 69 5 144c0 2 0 4 2 5 1 1 2 2 4 2 2 0 3-1 4-2 1-1 2-3 2-5z m112-212z m-56 214l4-146-4-68c0-2-1-4-3-5-1-2-3-3-5-3-1 0-3 1-4 2-2 2-3 3-3 6l-4 68 4 146c0 2 1 3 2 5 2 1 4 2 5 2 2 0 4-1 5-2 2-2 3-3 3-5z m28-6l4-140-4-68c0-2-1-4-2-5-2-2-4-3-6-3-2 0-4 1-5 3-2 1-3 3-3 5l-3 68 3 140c0 2 1 4 3 6 1 1 3 2 5 2 2 0 4-1 5-2 2-2 3-4 3-6z m60-140l-4-66c0-3 0-5-2-7-2-1-4-2-6-2-3 0-5 1-7 2-1 2-2 4-3 7l-1 32-2 34 3 181 0 1c1 3 2 5 4 7 2 1 3 2 6 2 1 0 3 0 4-1 3-2 4-4 4-8z m318 5c0-22-8-41-24-57-15-16-34-24-57-24l-224 0c-3 1-5 2-7 4-1 1-2 3-2 6l0 257c0 4 3 7 8 9 16 7 33 10 52 10 37 0 69-13 96-38 27-25 43-56 46-92 10 4 20 6 31 6 23 0 42-8 57-24 16-15 24-35 24-57z"/>
<glyph glyph-name="foursquare" unicode="&#57374;" d="M359 388l10 55c1 5 1 9-2 12-3 3-6 5-10 5l-204 0c-4 0-8-2-11-5-3-3-4-7-4-11l0-314c0-2 1-2 2-1l83 101c4 5 8 8 11 10 3 1 7 2 13 2l69 0c4 0 7 1 10 4 3 3 5 5 5 8 5 25 9 43 11 55 1 4 0 8-3 11-3 4-7 6-11 6l-84 0c-5 0-10 2-13 5-4 4-6 8-6 14l0 12c0 5 2 10 6 13 3 4 8 6 13 6l99 0c4 0 7 1 10 4 3 2 5 5 6 8z m65 63c-3-13-8-39-16-76-7-37-14-70-19-100-6-30-10-46-10-49-2-4-2-8-3-10-1-2-2-5-4-9-2-4-4-7-7-9-3-2-6-4-11-6-5-2-10-3-17-3l-77 0c-2 0-5-1-6-3-2-2-42-49-122-141-4-5-10-8-17-8-7-1-11 0-14 1-10 4-15 14-15 28l0 403c0 11 3 20 11 29 7 9 18 14 34 14l254 0c18 0 30-5 36-15 6-10 7-25 3-46z m0 0l-45-225c0 3 4 19 10 49 5 30 12 63 19 100 8 37 13 63 16 76z"/>
<glyph glyph-name="flickr" unicode="&#57375;" d="M126 154c-27 0-51 10-71 30-19 20-29 44-29 72 0 29 9 53 29 73 19 19 43 29 71 29 28 0 52-10 71-29 20-20 29-44 29-73 0-28-10-52-29-72-20-20-44-30-71-30m260 0c-27 0-51 10-71 30-19 20-29 44-29 72 0 29 9 53 29 73 19 19 43 29 71 29 28 0 52-10 71-29 20-20 29-44 29-73 0-28-9-52-29-72-20-20-44-30-71-30"/>
<glyph glyph-name="angellist" unicode="&#57376;" d="M345 404l-32-94 33-6c32 86 47 136 47 148 0 11-3 16-10 16-11 0-24-21-38-64z m-85-196l9-25c7 8 14 14 21 19l-10 1-11 2z m-83 256c0-19 15-69 45-149 3 2 8 3 14 3 3 0 10-1 21-2l-34 101c-14 41-26 62-35 62-4 0-7-1-9-5-1-3-2-6-2-10z m-23-217c0-7 5-18 15-34 10-16 21-31 33-44 13-13 22-20 29-20 3 0 5 1 7 4 2 2 3 5 3 8 0 4-3 14-9 29-2 6-5 13-9 20-3 8-8 16-13 26-6 9-12 17-18 23-6 6-12 9-18 9-4 0-8-3-13-8-5-5-7-9-7-13z m-45-96c0-8 2-18 7-30 11-27 29-49 52-64 24-16 51-24 81-24 43 0 79 16 109 49 29 32 43 73 43 122 0 8 0 14 0 19 0 4-1 10-3 18-2 7-5 12-9 16-11 9-31 16-60 21-30 5-56 8-78 8-7 0-11-1-14-3-2-1-3-5-3-10 0-7 2-13 6-18 4-5 10-8 16-11 6-3 14-5 22-7 8-2 17-3 25-3 9 0 17-1 24-1 8-1 15-1 20 0l7 0c5 0 8-2 11-6 3-3 5-8 6-15-5-6-15-11-28-16-11-4-20-8-26-13-12-9-23-19-31-32-9-13-13-26-13-40 0-5 2-14 5-25 4-11 6-19 6-25l-1-3c-1-3-1-4-1-4-26 2-40 22-42 61-2 0-5 0-12 0 1-1 1-3 1-6 0-10-4-19-12-26-7-7-16-10-27-10-15 0-31 7-47 22-16 15-24 30-24 46 0 6 3 12 9 19 10-12 16-20 17-22 15-20 27-30 38-30 2 0 5 1 8 3 2 1 4 3 4 6 0 6-8 20-25 41-17 21-28 32-33 32-9 0-15-5-20-13-6-8-8-17-8-26z m-33-2c0 19 4 34 12 46 9 12 22 20 39 25-5 14-8 24-8 30 0 12 6 24 18 35 11 12 23 18 35 18 5 0 12-2 20-5-31 88-47 142-47 162 0 16 4 28 12 38 8 9 19 14 34 14 25 0 56-55 93-166 1-3 2-5 2-7 1 3 4 11 8 23 5 12 9 24 13 34 4 10 9 23 15 36 7 14 13 26 19 36 5 9 12 17 20 24 7 7 15 11 22 11 13 0 24-5 32-14 7-10 11-21 11-35 0-21-15-73-45-157 11-3 21-8 29-14 7-5 13-13 16-22 4-9 6-18 8-27 1-8 2-19 2-31 0-29-5-55-14-80-9-25-21-46-37-64-17-19-37-33-61-43-24-11-50-16-79-16-21 0-43 4-64 12-28 11-53 29-74 55-20 25-31 53-31 82z"/>
<glyph glyph-name="github" unicode="&#57377;" d="M475 256c0-48-14-91-41-129-28-38-64-65-109-79-5-1-8-1-11 2-2 2-3 5-3 8l0 61c0 18-5 32-15 40 11 1 20 3 29 5 9 3 18 6 27 11 9 6 17 12 23 19 6 8 11 18 15 30 4 13 6 27 6 43 0 23-8 43-23 59 7 18 7 37-2 59-5 1-13 0-23-4-10-3-19-8-26-12l-11-7c-18 5-36 7-55 7-19 0-37-2-55-7-3 2-7 5-12 8-5 3-13 6-24 11-11 4-19 5-24 4-9-22-9-41-2-59-15-16-23-36-23-59 0-16 2-30 6-42 4-13 9-23 15-30 6-8 14-14 23-20 9-5 18-8 27-11 8-2 18-4 29-5-8-7-12-17-14-29-4-2-8-4-13-5-4-1-10-1-16-1-6 0-13 2-19 6-6 4-11 10-16 18-3 6-8 11-14 15-5 4-10 6-14 7l-5 1c-4 0-7-1-9-2-1-1-2-2-1-3 0-1 1-3 2-4 2-1 3-2 4-3l2-2c4-2 8-5 13-11 4-5 7-10 9-14l2-7c3-7 7-13 13-17 6-5 12-8 19-9 7-1 14-2 20-2 6 0 12 0 16 1l6 1c0-7 0-16 1-25 0-10 0-15 0-16 0-3-2-6-4-8-2-3-6-3-11-2-45 14-81 41-109 79-27 38-41 81-41 129 0 40 9 77 29 110 20 34 46 60 80 80 33 20 70 29 110 29 40 0 77-9 110-29 34-20 60-46 80-80 20-33 29-70 29-110z"/>
<glyph glyph-name="aboutme" unicode="&#57378;" d="M160 158c-13 0-25 0-37 0 0 3 0 6 0 9 0 38 0 77 0 116 0 4-1 7-1 11-3 27-22 39-49 31-14-4-24-13-33-24-2-2-2-6-2-9 0-42 0-84 0-126 0-2 0-5 0-8-13 0-25 0-38 0 0 66 0 131 0 197 12 0 24 0 37 0 0-8 0-16 0-26 19 19 38 31 64 31 26 1 46-8 56-35 2 3 4 4 6 6 19 22 44 32 73 29 28-3 46-21 47-51 1-47 0-94 0-142 0-3 0-5 0-9-12 0-25 0-38 0 0 3 0 6 0 9 0 40-1 80 0 120 1 40-30 48-58 34-3-1-6-2-9-4-11-8-19-17-19-34 2-38 1-77 1-115 0-4 0-7 0-10z m338 24c-17-16-36-24-58-27-35-6-67-1-95 23-19 16-29 37-32 61-5 39 4 73 35 99 30 24 65 29 101 16 35-12 53-39 60-74 2-11 2-23 3-36-54 0-107 0-160 0 3-24 14-41 34-53 22-11 60-13 94 16 6-8 12-16 18-25z m-146 90c41 0 81 0 122 0 0 33-27 58-64 57-31 0-59-28-58-57z"/>
<glyph glyph-name="crunchbase" unicode="&#57379;" d="M322 94c0-3 0-6 0-9-17 0-34 0-52 0 0 116 0 232 0 349 17 0 34 0 52 0 0-44 0-88 0-134 38 24 77 27 116 10 24-10 43-26 56-49 28-50 23-105-16-147-34-38-95-54-156-20z m67 35c38 1 68 31 69 69 0 35-30 68-68 68-38 1-69-30-69-68-1-36 32-69 68-69z m-205 41c-1-3-2-5-3-7-1-1-2-2-2-3-12-20-31-29-54-30-24-2-43 9-57 28-26 34-14 87 31 104 29 11 60 1 79-24 0 0-1 0-1 0 0 0 5-6 8-14l22 0c8 0 17 0 25 0l10 0c0 0-1 19-18 43-1 0-1 1-2 2-26 37-71 58-121 50-47-8-89-46-98-96-10-49 4-90 43-121 37-29 79-35 123-18 23 10 41 24 53 43 1 0 1 0 1 0 10 15 15 28 16 35 0 0 1 1 1 1 0 1 0 2 0 2 1 3 1 5 1 5l-57 0z"/>
<glyph glyph-name="gravatar" unicode="&#57380;" d="M305 399c0-42 1-81 0-121 0-23-18-42-41-45-24-4-46 8-54 31-2 5-3 11-3 17 0 59 0 119 0 178 0 30 21 49 52 50 114 1 222-89 243-203 26-142-63-272-204-299-131-24-265 69-288 201-14 84 6 159 64 222 15 17 34 23 55 17 19-6 30-19 34-38 4-19-3-35-16-49-80-85-41-220 72-250 75-20 153 22 180 96 26 73-9 157-79 188-4 2-8 3-15 5z"/>
<glyph glyph-name="klout" unicode="&#57381;" d="M0 453l0-312 349 0 163-84 0 396z m211-177c0-1-1-2-2-2l-23 0c-1 0-1 0-1-1l-61-85c-1 0-1 0-2 0l-70 0c-1 0-2 1-1 2l79 110c0 0 0 1 0 2l-74 105c-1 1 0 3 1 3l69 0c0 0 1 0 1-1l58-82c0-1 1-1 1-1l23 0c1 0 2-1 2-2z m248-88l-70 0c-1 0-1 0-2 0l-61 85c0 1-1 1-1 1l-36 0c-1 0-2-1-2-2l0-82c0-1-1-2-2-2l-58 0c-1 0-1 1-1 2l0 218c0 1 0 2 1 2l58 0c1 0 2-1 2-2l0-80c0-1 1-2 2-2l36 0c0 0 1 0 1 1l58 82c0 1 0 1 1 1l69 0c1 0 2-2 1-3l-74-105c0-1 0-2 0-2l79-110c1-1 0-2-1-2z"/>
<glyph glyph-name="tenant-solid" unicode="&#57382;" d="M512 336c0-97-79-176-176-176-11 0-22 1-33 3l-24-27c-4-5-11-8-18-8l-37 0 0-40c0-13-11-24-24-24l-40 0 0-40c0-13-11-24-24-24l-112 0c-13 0-24 11-24 24l0 78c0 6 3 13 7 17l162 162c-6 17-9 36-9 55 0 97 79 176 176 176 98 0 176-79 176-176z m-176 48c0-27 22-48 48-48 27 0 48 21 48 48 0 26-21 48-48 48-26 0-48-22-48-48z"/>
<glyph glyph-name="android-add" unicode="&#57383;" d="M416 235l-139 0 0-139-42 0 0 139-139 0 0 42 139 0 0 139 42 0 0-139 139 0z"/>
<glyph glyph-name="times-circle" unicode="&#57384;" d="M365 191c0 5-2 10-6 13l-51 52 51 52c4 3 6 8 6 13 0 5-2 9-6 13l-25 25c-4 4-8 6-13 6-5 0-10-2-13-6l-52-51-52 51c-3 4-8 6-13 6-5 0-9-2-13-6l-25-25c-4-4-6-8-6-13 0-5 2-10 6-13l51-52-51-52c-4-3-6-8-6-13 0-5 2-9 6-13l25-25c4-4 8-6 13-6 5 0 10 2 13 6l52 51 52-51c3-4 8-6 13-6 5 0 9 2 13 6l25 25c4 4 6 8 6 13z m110 65c0-40-9-77-29-110-20-34-46-60-80-80-33-20-70-29-110-29-40 0-77 9-110 29-34 20-60 46-80 80-20 33-29 70-29 110 0 40 9 77 29 110 20 34 46 60 80 80 33 20 70 29 110 29 40 0 77-9 110-29 34-20 60-46 80-80 20-33 29-70 29-110z"/>
<glyph glyph-name="calendar-check" unicode="&#57385;" d="M259 139l19 19c1 0 1 0 2 0 0 0 1 0 1 0l32-34c1 0 1 0 2 0 1 0 1 0 1 0l70 87c1 0 1 0 2 0 0 0 1 0 1 0l22-18c0 0 0-1 1-1 0-1-1-1-1-2l-92-113c0 0-1 0-1 0-1 0-1 0-2 0l-57 60c0 1 0 2 0 2z m163 140l0 53c0 10-3 13-14 13-125 0-250 0-375 0-6 0-11-1-14-7l0-235c1-41 78-1 78-1-72-21-56-34-34-34l156 0c34-51 95-76 155-63 60 13 107 60 117 121 11 60-17 121-69 153z m-79-245c-65 0-117 53-117 117 0 65 52 118 117 118 65 0 118-53 118-118 0-64-53-117-118-117z m-308 339c124 0 248 0 372 0 1 0 2 0 3 0 8 0 12 4 12 12 0 10 0 20 0 30 0 21-16 40-38 41-14 1-28 0-42 1-2 0-4 0-6 0 0 15 5 30 0 44 0 7-4 11-10 11-13 0-25 0-37 0-7-12-10-4-11-11 0-3 0-5 0-8l0-36-114 0 0 6c0 12 0 24 0 35 0 10-4 14-14 14-9 0-17 0-26 0-17 0-18-2-18-18l0-37-43 0c-14 0-27-6-35-18-4-5-6-12-9-18l0-41c4-6 9-7 16-7z"/>
<glyph glyph-name="calendar-plus" unicode="&#57386;" d="M269 137l0 28c0 1 1 2 2 2l54 0 0 53c0 2 1 2 2 2l28 0c1 0 2 0 2-2l0-53 53 0c1 0 2-1 2-2l0-28c0-1-1-2-2-2l-53 0 0-53c0-2-1-2-2-2l-28 0c-1 0-2 0-2 2l0 53-54 0c-1 0-2 1-2 2z m153 142l0 53c0 10-3 13-14 13-125 0-250 0-375 0-6 0-11-1-14-7l0-235c1-41 78-1 78-1-72-21-56-34-34-34l156 0c34-51 95-76 155-63 60 13 107 60 117 121 11 60-17 121-69 153z m-79-245c-65 0-117 53-117 117 0 65 52 118 117 118 65 0 118-53 118-118 0-64-53-117-118-117z m-308 339c124 0 248 0 372 0 1 0 2 0 3 0 8 0 12 4 12 12 0 10 0 20 0 30 0 21-16 40-38 41-14 1-28 0-42 1-2 0-4 0-6 0 0 15 5 30 0 44 0 7-4 11-10 11-13 0-25 0-37 0-7-12-10-4-11-11 0-3 0-5 0-8l0-36-114 0 0 6c0 12 0 24 0 35 0 10-4 14-14 14-9 0-17 0-26 0-17 0-18-2-18-18l0-37-43 0c-14 0-27-6-35-18-4-5-6-12-9-18l0-41c4-6 9-7 16-7z"/>
<glyph glyph-name="enrich" unicode="&#57387;" d="M163 417l58-33-32 58 32 58-58-32-58 32 32-58-32-58z m279-228l-58 32 33-58-33-58 58 32 58-32-32 58 32 58z m58 311l-58-32-58 32 33-58-33-58 58 33 58-33-32 58z m-177-123c-9 9-24 9-33 0l-272-271c-9-9-9-24 0-33l55-55c9-9 24-9 33 0l271 272c9 9 9 24 0 33z m-24-127l-49 49 56 57 50-50z"/>
<glyph glyph-name="camera" unicode="&#57388;" d="M256 171c35 0 64 28 64 64 0 35-29 64-64 64-35 0-64-29-64-64 0-36 29-64 64-64z m171 234l-68 0-26 29c-8 9-20 14-32 14l-90 0c-12 0-24-5-32-14l-26-29-68 0c-23 0-42-19-42-42l0-256c0-24 19-43 42-43l342 0c23 0 42 19 42 43l0 256c0 23-19 42-42 42z m-171-277c-59 0-107 48-107 107 0 59 48 106 107 106 59 0 107-47 107-106 0-59-48-107-107-107z"/>
<glyph glyph-name="bell" unicode="&#57389;" d="M261 27c0 3-2 5-5 5-11 0-21 4-29 12-8 8-12 18-12 29 0 3-2 5-5 5-3 0-4-2-4-5 0-14 5-26 14-35 10-10 22-15 36-15 3 0 5 1 5 4z m233 83c0-10-4-19-11-26-7-7-16-11-26-11l-128 0c0-20-7-37-21-52-15-14-32-21-52-21-20 0-37 7-52 21-14 15-21 32-21 52l-128 0c-10 0-19 4-26 11-7 7-11 16-11 26 10 8 18 16 26 25 8 9 16 20 25 34 8 14 15 29 21 45 6 16 10 36 14 59 4 23 6 48 6 74 0 29 11 56 33 81 22 25 52 40 88 45-2 4-2 8-2 12 0 7 2 14 8 19 5 5 11 8 19 8 8 0 14-3 19-8 6-5 8-12 8-19 0-4 0-8-2-12 36-5 66-20 88-45 22-25 33-52 33-81 0-26 2-51 6-74 4-23 8-43 14-59 6-16 13-31 21-45 9-14 17-25 25-34 8-9 16-17 26-25z"/>
<glyph glyph-name="bell-o" unicode="&#57390;" d="M261 27c0 3-2 5-5 5-11 0-21 4-29 12-8 8-12 18-12 29 0 3-2 5-5 5-3 0-4-2-4-5 0-14 5-26 14-35 10-10 22-15 36-15 3 0 5 1 5 4z m-191 83l372 0c-51 57-76 136-76 237 0 10-3 20-7 30-5 11-11 21-20 30-8 9-20 17-35 23-14 6-30 9-48 9-18 0-34-3-48-9-15-6-27-14-35-23-9-9-15-19-20-30-4-10-7-20-7-30 0-101-25-180-76-237z m424 0c0-10-4-19-11-26-7-7-16-11-26-11l-128 0c0-20-7-37-21-52-15-14-32-21-52-21-20 0-37 7-52 21-14 15-21 32-21 52l-128 0c-10 0-19 4-26 11-7 7-11 16-11 26 10 8 18 16 26 25 8 9 16 20 25 34 8 14 15 29 21 45 6 16 10 36 14 59 4 23 6 48 6 74 0 29 11 56 33 81 22 25 52 40 88 45-2 4-2 8-2 12 0 7 2 14 8 19 5 5 11 8 19 8 8 0 14-3 19-8 6-5 8-12 8-19 0-4 0-8-2-12 36-5 66-20 88-45 22-25 33-52 33-81 0-26 2-51 6-74 4-23 8-43 14-59 6-16 13-31 21-45 9-14 17-25 25-34 8-9 16-17 26-25z"/>
<glyph glyph-name="bell-slash" unicode="&#57391;" d="M409 269c11-68 40-121 85-159 0-10-4-19-11-26-7-7-16-11-26-11l-128 0c0-20-7-37-21-52-15-14-32-21-52-21-20 0-37 7-52 21-14 14-21 32-21 52z m-153-246c3 0 5 1 5 4 0 3-2 5-5 5-11 0-21 4-29 12-8 8-12 18-12 29 0 3-2 5-5 5-3 0-4-2-4-5 0-14 5-26 14-35 10-10 22-15 36-15z m286 457c2-2 3-4 2-7 0-2-1-4-3-6l-534-464c-2-1-5-2-7-2-3 1-5 2-6 4l-24 27c-2 2-3 4-2 7 0 2 1 4 3 6l53 46c-4 6-6 12-6 19 10 8 18 16 26 25 8 9 16 20 25 34 8 14 15 29 21 45 6 16 10 36 14 59 4 23 6 48 6 74 0 29 11 56 33 81 22 25 52 40 88 45-2 4-2 8-2 12 0 7 2 14 8 19 5 5 11 8 19 8 8 0 14-3 19-8 6-5 8-12 8-19 0-4 0-8-2-12 24-3 45-11 63-23 18-12 32-27 42-45l119 104c2 1 5 2 7 2 3-1 5-2 6-4z"/>
<glyph glyph-name="bell-slash-o" unicode="&#57392;" d="M261 27c0 3-2 5-5 5-11 0-21 4-29 12-8 8-12 18-12 29 0 3-2 5-5 5-3 0-4-2-4-5 0-14 5-26 14-35 10-10 22-15 36-15 3 0 5 1 5 4z m-154 136l251 217c-8 17-21 31-38 42-17 11-39 17-64 17-18 0-34-3-48-9-15-6-27-14-35-23-9-9-15-19-20-30-4-10-7-20-7-30 0-73-13-134-39-184z m387-53c0-10-4-19-11-26-7-7-16-11-26-11l-128 0c0-20-7-37-21-52-15-14-32-21-52-21-20 0-37 7-52 21-14 14-21 32-21 52l42 37 217 0c-32 35-54 79-65 131l32 28c11-68 40-121 85-159z m24 397l24-27c2-2 3-4 2-7 0-2-1-4-3-6l-534-464c-2-1-5-2-7-2-3 1-5 2-6 4l-24 27c-2 2-3 4-2 7 0 2 1 4 3 6l53 46c-4 6-6 12-6 19 10 8 18 16 26 25 8 9 16 20 25 34 8 14 15 29 21 45 6 16 10 36 14 59 4 23 6 48 6 74 0 29 11 56 33 81 22 25 52 40 88 45-2 4-2 8-2 12 0 7 2 14 8 19 5 5 11 8 19 8 8 0 14-3 19-8 6-5 8-12 8-19 0-4 0-8-2-12 24-3 45-11 63-23 18-12 32-27 42-45l119 104c2 1 5 2 7 2 3-1 5-2 6-4z"/>
<glyph glyph-name="star" unicode="&#57393;" d="M494 327c0-4-3-9-8-14l-103-101 24-143c0-1 0-3 0-5 0-4-1-8-3-10-2-3-4-5-8-5-4 0-8 2-12 4l-128 67-128-67c-4-2-8-4-12-4-4 0-7 2-9 5-2 2-3 6-3 10 0 1 0 3 1 5l24 143-104 101c-4 6-7 10-7 14 0 7 6 12 16 13l144 21 64 130c4 8 8 12 14 12 6 0 10-4 14-12l64-130 144-21c10-1 16-6 16-13z"/>
<glyph glyph-name="star-o" unicode="&#57394;" d="M343 225l88 85-121 18-54 109-54-109-121-18 88-85-21-120 108 57 108-57z m151 102c0-4-3-9-8-14l-103-101 24-143c0-1 0-3 0-5 0-10-3-15-11-15-4 0-8 2-12 4l-128 67-128-67c-4-2-8-4-12-4-4 0-7 2-9 5-2 2-3 6-3 10 0 1 0 3 1 5l24 143-104 101c-4 6-7 10-7 14 0 7 6 12 16 13l144 21 64 130c4 8 8 12 14 12 6 0 10-4 14-12l64-130 144-21c10-1 16-6 16-13z"/>
<glyph glyph-name="external-link" unicode="&#57395;" d="M402 247l0-92c0-22-8-42-24-58-16-16-35-24-58-24l-238 0c-22 0-42 8-58 24-16 16-24 36-24 58l0 238c0 23 8 42 24 58 16 16 36 24 58 24l201 0c3 0 5 0 7-2 2-2 3-4 3-7l0-18c0-3-1-5-3-7-2-1-4-2-7-2l-201 0c-12 0-23-5-32-14-9-9-13-19-13-32l0-238c0-12 4-23 13-32 9-9 20-13 32-13l238 0c13 0 23 4 32 13 9 9 14 20 14 32l0 92c0 3 1 5 2 6 2 2 4 3 7 3l18 0c3 0 5-1 7-3 1-1 2-3 2-6z m110 247l0-147c0-5-2-9-5-12-4-4-8-6-13-6-5 0-10 2-13 6l-50 50-187-186c-2-2-4-3-6-3-3 0-5 1-7 3l-32 32c-2 2-3 4-3 7 0 2 1 4 3 6l186 187-50 50c-4 3-6 8-6 13 0 5 2 9 6 13 3 3 7 5 12 5l147 0c5 0 9-2 13-5 3-4 5-8 5-13z"/>
<glyph glyph-name="cosential-icon-queued-2" unicode="&#57396;" d="M356 279l-95 0 0-46 95 0-69-67c-3-3-5-6-5-10 0-4 2-7 5-10l12-13c6-5 15-5 20 0l113 113c5 5 5 14 0 20l-113 113c-5 5-14 5-20 0l-12-13c-3-3-5-6-5-10 0-4 2-7 5-10z m-276-42c3-3 6-4 10-4l53 0 0 46-53 0c-4 0-7-1-10-4-3-2-4-6-4-10l0-18c0-4 1-8 4-10z m91 42l62 0 0-46-62 0z"/>
<glyph glyph-name="cosential-icon-sort-ascending" unicode="&#57397;" d="M114 308l-25 0c-5 0-10 4-12 8-2 5-1 11 3 15l47 47c5 5 13 5 19 0l47-47c4-4 5-10 3-15-2-4-7-8-12-8l-26 0 0-165c0-2 0-4-2-5-1-1-3-2-4-2l-31 0c-2 0-3 1-5 2-1 1-2 3-2 5z m149 57l165 0c4 0 8-4 8-8l0-38c0-5-4-8-8-8l-165 0c-4 0-8 3-8 8l0 38c0 4 4 8 8 8z m0-90l165 0c4 0 8-4 8-8l0-39c0-4-4-8-8-8l-165 0c-4 0-8 4-8 8l0 39c0 4 4 8 8 8z m0-91l165 0c4 0 8-3 8-8l0-38c0-4-4-8-8-8l-165 0c-4 0-8 4-8 8l0 38c0 5 4 8 8 8z"/>
<glyph glyph-name="cosential-icon-sort-descending" unicode="&#57398;" d="M158 210l26 0c5 0 10-4 12-9 2-4 1-10-3-14l-47-47c-6-5-14-5-19 0l-47 47c-4 4-5 10-3 14 2 5 7 9 12 9l25 0 0 165c0 2 1 4 2 5 2 1 3 2 5 2l31 0c1 0 3-1 4-2 2-1 2-3 2-5z m105 155l165 0c4 0 8-4 8-8l0-38c0-5-4-8-8-8l-165 0c-4 0-8 3-8 8l0 38c0 4 4 8 8 8z m0-90l165 0c4 0 8-4 8-8l0-39c0-4-4-8-8-8l-165 0c-4 0-8 4-8 8l0 39c0 4 4 8 8 8z m0-91l165 0c4 0 8-3 8-8l0-38c0-4-4-8-8-8l-165 0c-4 0-8 4-8 8l0 38c0 5 4 8 8 8z"/>
<glyph glyph-name="cosential-icon-ellipsis" unicode="&#57399;" d="M156 256c0-22-18-40-40-40-22 0-40 18-40 40 0 22 18 40 40 40 22 0 40-18 40-40z m140 0c0-22-18-40-40-40-22 0-40 18-40 40 0 22 18 40 40 40 22 0 40-18 40-40z m140 0c0-22-18-40-40-40-22 0-40 18-40 40 0 22 18 40 40 40 22 0 40-18 40-40z"/>
<glyph glyph-name="asterisk" unicode="&#57400;" d="M442 212c8-5 14-12 17-22 2-10 1-19-4-28l-18-31c-5-9-12-15-22-17-10-3-19-2-28 3l-76 44 0-88c0-10-4-18-11-26-7-7-16-10-26-10l-36 0c-10 0-19 3-26 10-7 8-11 16-11 26l0 88-76-44c-9-5-18-6-28-3-10 2-17 8-22 17l-18 31c-5 9-6 18-4 28 3 10 9 17 17 22l76 44-76 44c-8 5-14 12-17 22-2 10-1 19 4 28l18 31c5 9 12 15 22 17 10 3 19 2 28-3l76-44 0 88c0 10 4 18 11 26 7 7 16 10 26 10l36 0c10 0 19-3 26-10 7-8 11-16 11-26l0-88 76 44c9 5 18 6 28 3 10-2 17-8 22-17l18-31c5-9 6-18 4-28-3-10-9-17-17-22l-76-44z"/>
<glyph glyph-name="cosential-icon-external-link-2" unicode="&#57401;" d="M256 76c-43 0-86 0-129 0-9 0-19 2-27 7-15 9-23 22-24 39 0 3 0 6 0 8l0 256c0 28 21 49 49 50 32 0 65 0 97 0 9 0 16-4 19-12 4-7 3-16-3-22-4-5-10-7-17-7-31 0-62 0-93 0-8 0-11-3-11-11 0-85 0-170 0-255 0-2 0-4 0-5 0-4 3-7 7-7 1 0 2 0 2 0l259 0c7 0 10 3 10 10 0 31 0 63 0 95 0 12 7 19 18 21 11 2 21-6 22-17 0-2 1-4 1-6 0-31 0-62 0-92 0-12-4-24-11-34-11-13-24-18-41-18z m109 319l-4 0c-18 0-36 0-55 0-14 0-23 10-21 23 1 9 8 17 18 18 1 0 3 0 4 0l109 0c11 0 20-9 20-20 0-37 0-74 0-111 0-8-4-15-11-19-7-3-14-3-20 1-6 4-10 11-10 18 0 19 0 37 0 56l0 5c-1-1-2-2-3-3-48-48-96-96-144-145-6-5-13-8-20-7-17 4-22 23-10 35 0 1 1 2 2 3 47 47 95 94 142 142 1 1 3 2 4 3z"/>
<glyph glyph-name="exclamation-triangle" unicode="&#57402;" d="M63 38l386 0c39 0 64 43 44 77l-193 333c-19 34-69 34-88 0l-193-333c-20-34 5-77 44-77z m193 180c-14 0-26 11-26 25l0 51c0 14 12 26 26 26 14 0 26-12 26-26l0-51c0-14-12-25-26-25z m26-103l-52 0 0 51 52 0z"/>
<glyph glyph-name="spinner" unicode="&#57403;" d="M150 114c0-10-3-19-10-26-8-7-16-11-26-11-10 0-19 4-26 11-7 7-11 16-11 26 0 10 4 18 11 26 7 7 16 10 26 10 10 0 18-3 26-10 7-8 10-16 10-26z m143-59c0-10-4-19-11-26-7-7-16-11-26-11-10 0-19 4-26 11-7 7-11 16-11 26 0 10 4 19 11 26 7 7 16 10 26 10 10 0 19-3 26-10 7-7 11-16 11-26z m-202 201c0-10-3-19-10-26-7-7-16-11-26-11-10 0-19 4-26 11-7 7-11 16-11 26 0 10 4 19 11 26 7 7 16 11 26 11 10 0 19-4 26-11 7-7 10-16 10-26z m344-142c0-10-4-19-11-26-7-7-16-11-26-11-10 0-18 4-26 11-7 7-10 16-10 26 0 10 3 18 10 26 8 7 16 10 26 10 10 0 19-3 26-10 7-8 11-16 11-26z m-276 284c0-12-4-23-13-32-9-9-20-13-32-13-13 0-24 4-33 13-9 9-13 20-13 32 0 13 4 24 13 33 9 9 20 13 33 13 12 0 23-4 32-13 9-9 13-20 13-33z m335-142c0-10-4-19-11-26-7-7-16-11-26-11-10 0-19 4-26 11-7 7-10 16-10 26 0 10 3 19 10 26 7 7 16 11 26 11 10 0 19-4 26-11 7-7 11-16 11-26z m-183 201c0-15-5-28-16-39-11-10-24-16-39-16-15 0-28 6-39 16-11 11-16 24-16 39 0 15 5 28 16 39 11 11 24 16 39 16 15 0 28-5 39-16 11-11 16-24 16-39z m151-59c0-17-6-33-19-45-12-12-27-19-45-19-17 0-33 7-45 19-12 12-19 28-19 45 0 18 7 33 19 45 12 13 28 19 45 19 18 0 33-6 45-19 13-12 19-27 19-45z"/>
<glyph glyph-name="gift" unicode="&#57404;" d="M302 125l0 204-92 0 0-204c0-5 2-9 5-11 4-3 8-4 14-4l54 0c6 0 10 1 14 4 3 2 5 6 5 11z m-131 241l56 0-36 46c-5 6-11 9-20 9-7 0-14-3-19-8-5-6-8-12-8-20 0-7 3-14 8-19 5-6 12-8 19-8z m197 27c0 8-3 14-8 20-5 5-12 8-19 8-9 0-15-3-20-9l-36-46 56 0c7 0 14 2 19 8 5 5 8 12 8 19z m107-73l0-91c0-3 0-5-2-7-2-2-4-3-7-3l-27 0 0-118c0-8-3-15-8-20-5-5-12-8-20-8l-310 0c-8 0-15 3-20 8-5 5-8 12-8 20l0 118-27 0c-3 0-5 1-7 3-2 2-2 4-2 7l0 91c0 3 0 5 2 7 2 1 4 2 7 2l125 0c-17 0-32 6-45 19-12 12-19 27-19 45 0 18 7 33 19 45 13 13 28 19 45 19 21 0 37-7 48-22l37-47 37 47c11 15 27 22 48 22 17 0 32-6 45-19 12-12 19-27 19-45 0-18-7-33-19-45-13-13-28-19-45-19l125 0c3 0 5-1 7-2 2-2 2-4 2-7z"/>
<glyph glyph-name="question-circle-outline" unicode="&#57405;" d="M256 512c-141 0-256-115-256-256 0-141 115-256 256-256 141 0 256 115 256 256 0 141-115 256-256 256z m0-461c-113 0-205 92-205 205 0 113 92 205 205 205 113 0 205-92 205-205 0-113-92-205-205-205z m-26 103l52 0 0-52-52 0z m42 255c-53 7-100-25-114-72-4-15 7-30 22-30l6 0c10 0 19 8 22 17 8 23 33 39 59 33 24-5 42-29 40-54-2-34-41-41-63-73 0-1 0-1 0-1 0 0 0-1-1-1-2-4-4-8-6-13 0-1-1-1-1-2 0-1 0-1 0-2-4-9-6-19-6-32l52 0c0 11 2 20 7 28 0 0 1 1 1 2 2 3 5 7 7 10 0 0 1 1 1 1 3 3 5 6 8 9 25 23 58 42 51 91-6 44-41 82-85 89z"/>
<glyph glyph-name="import" unicode="&#57406;" d="M462 50l0 6c0 65 0 130 0 196 0 9 3 17 12 22 3 2 7 3 11 3 4 0 7-1 11-2 3-2 6-5 8-8 2-3 3-7 4-10 0-2 0-4 0-6l0-221c0-17-9-26-26-26l-456 0c-17 0-26 9-26 26l0 456c0 17 9 26 26 26 75 0 151 0 226 0 19 0 31-18 22-34-1-3-4-7-8-9-3-2-7-3-11-3-3 0-7 0-11 0l-198 0 0-416z m-184 172c17 16 34 33 50 50 4 4 9 6 14 7 5 0 10-1 14-3 4-3 7-6 9-10 2-5 3-9 2-14-1-5-3-9-6-12-6-7-12-13-18-19l-71-71c-11-11-25-11-35 0-31 30-61 61-91 91-11 11-10 27 3 36 4 3 10 5 15 4 6-1 11-3 14-7 17-16 33-32 48-49 1-1 2-2 3-4l2 1c0 2 0 4 0 5 1 21 0 42 2 62 3 32 13 63 29 91 30 54 78 96 137 117 27 10 56 15 84 15 14 0 25-10 25-23 0-13-10-23-24-23-46-1-89-15-125-43-40-30-67-73-77-121-3-13-4-26-5-40-1-13 0-26 0-40z"/>
<glyph glyph-name="info-circle" unicode="&#57407;" d="M329 119l0 46c0 2-1 4-2 6-2 2-4 3-7 3l-27 0 0 146c0 3-1 5-3 7-2 1-4 2-7 2l-91 0c-3 0-5-1-7-2-1-2-2-4-2-7l0-46c0-2 1-5 2-6 2-2 4-3 7-3l27 0 0-91-27 0c-3 0-5-1-7-3-1-2-2-4-2-6l0-46c0-3 1-5 2-7 2-1 4-2 7-2l128 0c3 0 5 1 7 2 1 2 2 4 2 7z m-36 256l0 46c0 2-1 4-3 6-2 2-4 3-7 3l-54 0c-3 0-5-1-7-3-2-2-3-4-3-6l0-46c0-3 1-5 3-7 2-1 4-2 7-2l54 0c3 0 5 1 7 2 2 2 3 4 3 7z m182-119c0-40-9-77-29-110-20-34-46-60-80-80-33-20-70-29-110-29-40 0-77 9-110 29-34 20-60 46-80 80-20 33-29 70-29 110 0 40 9 77 29 110 20 34 46 60 80 80 33 20 70 29 110 29 40 0 77-9 110-29 34-20 60-46 80-80 20-33 29-70 29-110z"/>
<glyph glyph-name="icon-profile-image-placeholder" unicode="&#57408;" d="M253 181c-90 0-164 73-164 164 0 90 74 164 164 164 91 0 164-74 164-164 0-91-73-164-164-164z m0 49c64 0 115 51 115 115 0 63-51 115-115 115-63 0-115-52-115-115 0-64 52-115 115-115z m-229-230c0 127 102 230 229 230 127 0 230-103 230-230l-53 0c0 98-79 178-177 178-98 0-177-80-177-178z"/>
<glyph glyph-name="top-nav-app-market" unicode="&#57409;" d="M13 439c0-33 27-60 61-60 33 0 60 27 60 60 0 34-27 61-60 61-34 0-61-27-61-61z m182-364c0-34 27-61 61-61 34 0 61 27 61 61 0 33-27 60-61 60-34 0-61-27-61-60z m-182 0c0-34 27-61 61-61 33 0 60 27 60 61 0 33-27 60-60 60-34 0-61-27-61-60z m0 182c0-34 27-61 61-61 33 0 60 27 60 61 0 34-27 61-60 61-34 0-61-27-61-61z m182 0c0-34 27-61 61-61 34 0 61 27 61 61 0 34-27 61-61 61-34 0-61-27-61-61z m243 243c-33 0-60-27-60-61 0-33 27-60 60-60 34 0 61 27 61 60 0 34-27 61-61 61z m-243-61c0-33 27-60 61-60 34 0 61 27 61 60 0 34-27 61-61 61-34 0-61-27-61-61z m183-182c0-34 27-61 60-61 34 0 61 27 61 61 0 34-27 61-61 61-33 0-60-27-60-61z m0-182c0-34 27-61 60-61 34 0 61 27 61 61 0 33-27 60-61 60-33 0-60-27-60-60z"/>
<glyph glyph-name="top-nav-create" unicode="&#57410;" d="M459 210l-174 0 0-174c0-19-15-35-35-35-19 0-34 16-34 35l0 174-175 0c-19 0-34 16-34 35 0 19 15 35 34 35l175 0 0 174c0 19 15 35 34 35 20 0 35-16 35-35l0-174 174 0c20 0 35-16 35-35 0-19-15-35-35-35z"/>
<glyph glyph-name="top-nav-help" unicode="&#57411;" d="M242 1c-28 0-51 23-51 51 0 29 23 51 51 51 29 0 51-22 51-51 0-28-22-51-51-51z m123 301c-31-45-60-60-76-88-7-12-9-20-9-58l-74 0c0 20-3 53 13 81 19 35 57 56 79 87 23 33 10 95-56 95-24 0-42-11-54-26-14-16-35-27-55-19-17 8-26 27-17 44 24 40 68 70 126 70 60 0 101-27 122-61 18-30 28-84 1-125z"/>
<glyph glyph-name="left-nav-activities" unicode="&#57412;" d="M210 356c-4 0-8 1-11 4-3 3-4 6-4 11l0 38c0 4 1 8 4 11 3 3 7 4 11 4l275 0c3 0 7-1 10-4 3-3 5-7 5-11l0-38c0-5-2-8-5-11-3-3-7-4-10-4z m0-153c-4 0-8 1-11 4-3 3-4 7-4 12l0 38c0 4 1 7 4 10 3 3 7 5 11 5l275 0c3 0 7-2 10-5 3-3 5-6 5-10l0-38c0-5-2-9-5-12-3-3-7-4-10-4z m0-152c-4 0-8 1-11 4-3 3-4 7-4 11l0 38c0 4 1 8 4 11 3 3 7 5 11 5l275 0c3 0 7-2 10-5 3-3 5-7 5-11l0-38c0-4-2-8-5-11-3-3-7-4-10-4z m-137 80c13 0 23-5 33-13 8-10 13-20 13-33 0-13-5-23-13-32-10-10-20-13-33-13-13 0-24 3-33 13-10 9-14 19-14 32 0 13 4 23 14 33 9 8 20 13 33 13z m89 285l-1 0c2 2 4 5 4 7 0 3-1 6-3 9l-16 16c-3 2-6 3-9 3-4 0-6-1-8-3l-61-61-22 21c-1 2-4 4-7 4-4 0-7-2-9-4l-15-14c-2-3-3-6-3-9 0-3 1-5 4-7l45-46c2-2 5-3 8-3 3 0 6 1 9 3l14 15z m0-153l-1 0c2 2 4 5 4 9 0 3-1 6-3 8l-16 16c-3 2-6 4-9 4-4 0-6-2-8-4l-61-60-22 21c-1 2-4 3-7 3-4 0-7-1-9-3l-15-15c-2-3-3-6-3-9 0-3 1-6 4-8l45-44c2-3 5-4 8-4 3 0 6 1 9 4l14 14z"/>
<glyph glyph-name="left-nav-personnel" unicode="&#57413;" d="M256 241c67 0 120 54 120 120 0 67-53 121-120 121-67 0-120-54-120-121 0-66 53-120 120-120z m0-60c-80 0-241-41-241-121l0-30c0-16 14-30 30-30l422 0c16 0 30 14 30 30l0 30c0 80-161 121-241 121z"/>
<glyph glyph-name="left-nav-products" unicode="&#57414;" d="M483 265l-220 219c-9 9-21 14-34 14l-171 0c-27 0-49-22-49-49l0-170c0-14 6-26 15-35l219-219c9-9 21-15 34-15 14 0 26 6 35 15l171 171c9 8 14 20 14 34 0 13-6 26-14 35z m-388 111c-21 0-37 17-37 37 0 20 16 36 37 36 20 0 36-16 36-36 0-20-16-37-36-37z"/>
<glyph glyph-name="left-nav-companies" unicode="&#57415;" d="M391 270l0 161c0 30-25 54-54 54l-162 0c-29 0-54-24-54-54l0-54-54 0c-29 0-54-24-54-54l0-269c0-30 25-54 54-54l135 0c15 0 27 12 27 27l0 81 54 0 0-81c0-15 12-27 27-27l135 0c29 0 54 24 54 54l0 162c0 29-25 54-54 54z m-270-216l-54 0 0 54 54 0z m0 108l-54 0 0 54 54 0z m0 108l-54 0 0 53 54 0z m108-108l-54 0 0 54 54 0z m0 108l-54 0 0 53 54 0z m0 107l-54 0 0 54 54 0z m108-215l-54 0 0 54 54 0z m0 108l-54 0 0 53 54 0z m0 107l-54 0 0 54 54 0z m108-323l-54 0 0 54 54 0z m0 108l-54 0 0 54 54 0z"/>
<glyph glyph-name="left-nav-contacts" unicode="&#57416;" d="M12 423l0-334c0-22 18-40 41-40l406 0c23 0 41 18 41 40l0 334c0 22-18 40-41 40l-406 0c-23 0-41-18-41-40z m305-106c0-34-27-61-61-61-34 0-61 27-61 61 0 34 27 61 61 61 34 0 61-27 61-61z m-183-163c0 41 81 63 122 63 41 0 122-22 122-63l0-20-244 0z"/>
</font>
</defs>
</svg>
